<svg width="108" height="29" viewBox="0 0 108 29" fill="none" xmlns="http://www.w3.org/2000/svg">
<path d="M64.7576 24.7848C61.2086 24.7559 58.2758 21.1991 58.1772 16.7748C58.1033 12.2349 61.184 8.44678 64.8561 8.44678C68.4297 8.4757 71.4118 12.0036 71.4857 16.4279C71.5843 20.9967 68.479 24.8427 64.7576 24.7848ZM65.004 11.1939C62.6134 11.0782 60.6664 13.6229 60.6664 16.6014C60.6664 19.493 62.4655 21.951 64.7822 21.9799C67.1974 22.0088 69.0951 19.4063 69.0705 16.4568C69.0212 13.6518 67.296 11.2517 65.004 11.1939ZM46.7664 25.074C41.6648 24.8138 37.5737 19.7822 37.4751 13.5072C37.4012 6.97202 41.5416 1.53564 47.0622 1.53564C48.7874 1.53564 51.5969 1.65131 54.8255 5.64184L53.0017 7.89736C50.2168 4.7165 48.1466 4.48517 47.0622 4.543C42.1331 4.7165 40.0629 9.80588 40.1615 13.4205C40.2601 18.9436 44.0308 22.0088 46.939 22.1245C50.414 22.2401 53.7657 18.9436 53.815 14.7796H47.2347V11.7433H56.6246C57.0682 20.6786 51.8927 25.3921 46.7664 25.074ZM1 24.4957V1.62239H3.83422V24.4957H1ZM24.3392 24.7848C20.1741 24.5824 18.0053 20.7365 17.9067 16.7459C17.6849 12.2927 20.6424 8.41787 24.4624 8.44678C25.3743 8.44678 26.2615 8.79379 26.779 9.05404L27.7649 9.63238V12.9578L27.3459 12.4084C27.0255 12.0036 25.5221 11.165 24.2899 11.1939C21.9978 11.2228 20.3959 13.5362 20.3466 16.2543C20.2234 19.4063 21.85 21.8353 24.4131 22.0088C24.6103 22.0088 28.5042 21.8353 28.5042 16.5146V1.62239H31.0673V16.6014C31.0673 20.7365 28.381 25.0162 24.3392 24.7848ZM13.8156 24.4957V16.1965C13.8156 11.5987 11.8933 11.512 10.8828 11.3963C9.55194 11.1361 7.75283 12.7843 7.75283 15.4447V24.5246H5.28829V15.6182C5.28829 10.9626 8.14716 8.53353 10.9567 8.50462C12.3122 8.50462 16.3787 9.86371 16.3787 15.4736V24.4957H13.8156ZM32.7186 5.12134C32.8418 2.69232 35.75 2.80799 35.7007 5.15026C35.6267 7.66603 32.5954 7.34794 32.7186 5.12134ZM33.039 24.4957V8.6492H35.6267V24.4957H33.039Z" fill="#0358A6" fill-opacity="0.64" stroke="#0358A6" stroke-opacity="0.58" stroke-width="1.68776" stroke-miterlimit="10"/>
<path d="M90.579 28.1211C91.1915 28.1211 91.688 27.5385 91.688 26.8198C91.688 26.1012 91.1915 25.5186 90.579 25.5186C89.9665 25.5186 89.47 26.1012 89.47 26.8198C89.47 27.5385 89.9665 28.1211 90.579 28.1211Z" fill="#0358A6" fill-opacity="0.64"/>
<path d="M90.579 24.6519C91.1915 24.6519 91.688 24.0691 91.688 23.3503C91.688 22.6315 91.1915 22.0488 90.579 22.0488C89.9665 22.0488 89.47 22.6315 89.47 23.3503C89.47 24.0691 89.9665 24.6519 90.579 24.6519Z" fill="#0358A6" fill-opacity="0.64"/>
<path d="M84.6635 21.1785C85.276 21.1785 85.7725 20.5959 85.7725 19.8772C85.7725 19.1585 85.276 18.5759 84.6635 18.5759C84.051 18.5759 83.5544 19.1585 83.5544 19.8772C83.5544 20.5959 84.051 21.1785 84.6635 21.1785Z" fill="#0358A6" fill-opacity="0.64"/>
<path d="M87.6213 21.1785C88.2338 21.1785 88.7303 20.5959 88.7303 19.8772C88.7303 19.1585 88.2338 18.5759 87.6213 18.5759C87.0087 18.5759 86.5122 19.1585 86.5122 19.8772C86.5122 20.5959 87.0087 21.1785 87.6213 21.1785Z" fill="#0358A6" fill-opacity="0.64"/>
<path d="M90.0836 7.90845C90.6962 7.90845 91.1927 7.3259 91.1927 6.6073C91.1927 5.8887 90.6962 5.30615 90.0836 5.30615C89.4711 5.30615 88.9746 5.8887 88.9746 6.6073C88.9746 7.3259 89.4711 7.90845 90.0836 7.90845Z" fill="#0358A6" fill-opacity="0.64"/>
<path d="M93.0412 7.90845C93.6537 7.90845 94.1502 7.3259 94.1502 6.6073C94.1502 5.8887 93.6537 5.30615 93.0412 5.30615C92.4287 5.30615 91.9321 5.8887 91.9321 6.6073C91.9321 7.3259 92.4287 7.90845 93.0412 7.90845Z" fill="#0358A6" fill-opacity="0.64"/>
<path d="M95.9994 7.90845C96.6119 7.90845 97.1085 7.3259 97.1085 6.6073C97.1085 5.8887 96.6119 5.30615 95.9994 5.30615C95.3869 5.30615 94.8904 5.8887 94.8904 6.6073C94.8904 7.3259 95.3869 7.90845 95.9994 7.90845Z" fill="#0358A6" fill-opacity="0.64"/>
<path d="M98.9567 7.90845C99.5692 7.90845 100.066 7.3259 100.066 6.6073C100.066 5.8887 99.5692 5.30615 98.9567 5.30615C98.3442 5.30615 97.8477 5.8887 97.8477 6.6073C97.8477 7.3259 98.3442 7.90845 98.9567 7.90845Z" fill="#0358A6" fill-opacity="0.64"/>
<path d="M101.915 21.7676C102.527 21.7676 103.024 21.185 103.024 20.4663C103.024 19.7476 102.527 19.165 101.915 19.165C101.302 19.165 100.806 19.7476 100.806 20.4663C100.806 21.185 101.302 21.7676 101.915 21.7676Z" fill="#0358A6" fill-opacity="0.64"/>
<path d="M101.915 18.207C102.527 18.207 103.024 17.6244 103.024 16.9058C103.024 16.1871 102.527 15.6045 101.915 15.6045C101.302 15.6045 100.806 16.1871 100.806 16.9058C100.806 17.6244 101.302 18.207 101.915 18.207Z" fill="#0358A6" fill-opacity="0.64"/>
<path d="M101.915 14.7239C102.527 14.7239 103.024 14.1414 103.024 13.4229C103.024 12.7043 102.527 12.1218 101.915 12.1218C101.302 12.1218 100.806 12.7043 100.806 13.4229C100.806 14.1414 101.302 14.7239 101.915 14.7239Z" fill="#0358A6" fill-opacity="0.64"/>
<path d="M101.915 11.2883C102.527 11.2883 103.024 10.7057 103.024 9.98694C103.024 9.2682 102.527 8.68555 101.915 8.68555C101.302 8.68555 100.806 9.2682 100.806 9.98694C100.806 10.7057 101.302 11.2883 101.915 11.2883Z" fill="#0358A6" fill-opacity="0.64"/>
<path d="M90.579 21.1785C91.1915 21.1785 91.688 20.5959 91.688 19.8772C91.688 19.1585 91.1915 18.5759 90.579 18.5759C89.9665 18.5759 89.47 19.1585 89.47 19.8772C89.47 20.5959 89.9665 21.1785 90.579 21.1785Z" fill="#0358A6" fill-opacity="0.64"/>
<path d="M92.7846 18.6116C93.3971 18.6116 93.8936 18.029 93.8936 17.3104C93.8936 16.5918 93.3971 16.0093 92.7846 16.0093C92.1721 16.0093 91.6755 16.5918 91.6755 17.3104C91.6755 18.029 92.1721 18.6116 92.7846 18.6116Z" fill="#0358A6" fill-opacity="0.64"/>
<path d="M94.7592 16.3408C95.3717 16.3408 95.8682 15.7582 95.8682 15.0396C95.8682 14.3209 95.3717 13.7383 94.7592 13.7383C94.1467 13.7383 93.6501 14.3209 93.6501 15.0396C93.6501 15.7582 94.1467 16.3408 94.7592 16.3408Z" fill="#0358A6" fill-opacity="0.64"/>
<path d="M96.9889 13.7034C97.6014 13.7034 98.098 13.1208 98.098 12.4022C98.098 11.6836 97.6014 11.1011 96.9889 11.1011C96.3764 11.1011 95.8799 11.6836 95.8799 12.4022C95.8799 13.1208 96.3764 13.7034 96.9889 13.7034Z" fill="#0358A6" fill-opacity="0.64"/>
<path d="M98.9567 11.2573C99.5692 11.2573 100.066 10.6748 100.066 9.95618C100.066 9.23757 99.5692 8.65503 98.9567 8.65503C98.3442 8.65503 97.8477 9.23757 97.8477 9.95618C97.8477 10.6748 98.3442 11.2573 98.9567 11.2573Z" fill="#0358A6" fill-opacity="0.64"/>
<path d="M101.915 7.90845C102.527 7.90845 103.024 7.3259 103.024 6.6073C103.024 5.8887 102.527 5.30615 101.915 5.30615C101.302 5.30615 100.806 5.8887 100.806 6.6073C100.806 7.3259 101.302 7.90845 101.915 7.90845Z" fill="#0358A6" fill-opacity="0.64"/>
<path d="M103.889 5.46948C104.502 5.46948 104.998 4.88694 104.998 4.16833C104.998 3.44973 104.502 2.86719 103.889 2.86719C103.277 2.86719 102.78 3.44973 102.78 4.16833C102.78 4.88694 103.277 5.46948 103.889 5.46948Z" fill="#0358A6" fill-opacity="0.64"/>
<path d="M106.097 3.00049C106.71 3.00049 107.206 2.41789 107.206 1.69922C107.206 0.980547 106.71 0.397949 106.097 0.397949C105.485 0.397949 104.988 0.980547 104.988 1.69922C104.988 2.41789 105.485 3.00049 106.097 3.00049Z" fill="#0358A6" fill-opacity="0.64"/>
</svg>
