<svg width="102" height="53" viewBox="0 0 102 53" fill="none" xmlns="http://www.w3.org/2000/svg">
<path d="M34.0394 11.9988C35.3613 11.6985 36.3437 12.7078 36.245 14.2429C36.1462 15.7759 34.9908 17.2739 33.6714 17.5702C32.358 17.8644 31.3671 16.8551 31.4719 15.319C31.5723 13.7835 32.72 12.3027 34.0394 11.9988ZM19.8254 23.0068C20.9695 17.6558 22.3543 12.1918 23.7245 8.11189C20.9635 12.6587 18.0049 18.4438 15.339 24.2197C16.8906 23.7634 18.4 23.3588 19.8254 23.0068ZM43.3405 18.8368C44.3709 18.6013 46.6853 20.3612 45.5783 21.9919C44.4277 23.6697 43.1296 23.335 41.0918 24.4036C39.9368 25.0052 39.0508 26.3042 37.7857 28.5908C36.1772 31.5555 35.4403 34.4594 35.3081 36.6417C35.2972 37.2894 35.2561 37.6131 34.9836 37.8364C32.2906 40.046 31.4622 38.3854 31.5303 36.3556C31.5477 35.8765 31.6811 35.1188 31.919 34.186C29.8469 38.0891 28.0126 40.0632 26.8129 40.3342C25.2048 40.6993 24.2974 39.297 24.4703 36.7025C24.5493 35.5225 24.8319 34.1353 25.358 32.3871C25.9095 30.612 26.7786 28.1852 27.5833 26.1969C27.7885 25.6788 27.9868 25.1815 28.1537 24.7363C26.4844 25.1457 24.8204 25.5891 23.1625 26.0662C23.1351 26.1503 23.1122 26.1964 23.0872 26.2014C22.2208 31.2851 22.1527 33.2015 21.6859 37.6338C21.4883 39.5725 21.7859 41.658 19.948 41.9765C18.1105 42.3113 17.5006 39.9341 17.4897 37.9043C17.4659 35.8375 17.7699 33.3539 18.9325 27.3419C16.9447 27.9767 14.9693 28.6714 13.0081 29.4254C12.9799 29.4817 12.9601 29.511 12.9601 29.511C9.64354 37.138 6.37011 46.575 5.8287 49.6268C5.39695 52.0734 4.51691 52.823 3.22206 52.114C1.92962 51.4024 1.17697 49.7666 1.64702 47.9429C2.49884 44.6693 5.09299 37.3213 7.40374 32.0478C7.3864 32.0574 7.40374 31.9845 7.45816 31.8508C5.7646 32.6773 4.18997 33.5636 2.81368 34.5167C1.90623 35.1305 0.766986 34.5633 0.548489 33.2901C0.392074 32.3871 0.0486058 30.6039 1.80666 29.6346C4.46249 28.176 7.33561 26.9408 10.2055 25.8976C16.3004 13.0152 23.8761 -0.238812 26.0546 0.00326667C26.9975 0.105568 26.8484 1.38585 27.68 2.54611C28.5008 3.7013 28.6205 4.40879 27.6381 7.47124C25.6237 13.7572 25.7841 12.2931 23.8511 22.0993C27.3958 21.3609 30.4814 20.935 30.7704 20.8787C31.7488 20.704 33.4327 21.5412 32.5426 23.9417C32.5426 23.9417 31.6098 26.0054 31.2417 26.8892C30.5765 28.3513 29.7134 30.5487 29.1926 32.0336C28.8616 32.9092 28.7112 33.5787 28.6842 34.069C28.6572 34.3875 28.7524 34.5678 28.9572 34.5217C29.2285 34.46 29.6264 34.0918 30.1061 33.4678C30.5725 32.7826 32.1475 31.1595 34.9626 25.2012L35.7056 23.2707C35.945 22.6953 36.2881 21.6815 36.3534 21.216C36.4312 20.5242 36.4522 20.3444 36.9126 19.9803C37.6555 19.3847 38.9984 18.892 39.7736 19.5276C40.5032 20.1338 40.3142 21.2317 39.7083 22.5637C42.1617 19.093 42.7926 18.9502 43.3405 18.8368ZM91.3466 28.8699C92.7261 26.7388 94.8603 21.8496 94.9937 20.5146C95.055 19.9018 94.9147 19.6597 94.5313 19.722C94.0572 19.801 92.9934 20.8929 91.9807 22.4502C90.4976 24.6862 88.5005 29.196 88.344 30.6819C88.2783 31.2896 88.4759 31.6887 88.8169 31.6376C89.3656 31.5429 90.3138 30.5087 91.3466 28.8699ZM99.6124 25.342C100.212 24.1463 101.481 24.5373 101.141 25.6368C100.848 26.5884 100.294 28.133 98.8823 30.2286C97.1468 32.9092 95.5484 34.2098 94.1036 34.4508C92.9385 34.657 92.1129 34.03 91.9114 32.7188L91.8436 32.4519C91.84 32.221 91.7477 32.106 91.6465 32.1273C91.5401 32.1415 91.4623 32.2412 91.2676 32.4722C89.8022 34.423 88.6815 35.6227 87.3269 35.8557C85.3036 36.1879 84.1261 34.2037 84.4127 31.3246C83.8713 32.3314 83.3122 33.2987 82.7974 34.0123C81.2163 36.2188 79.9202 37.6206 78.7177 37.8182C77.0951 38.0906 76.2457 36.6376 76.519 34.0634C76.6411 32.8905 76.9891 31.5246 77.5829 29.7916C78.1997 28.0631 79.1563 25.6869 80.0403 23.7487C80.7462 22.1605 81.4275 20.3647 81.5336 19.7524C81.615 19.2703 81.6569 19.1771 81.9568 18.932C82.3338 18.5957 83.0775 18.1971 83.5311 18.1521C84.6764 18.0437 86.1962 19.0839 85.1908 21.2408L84.8118 22.0613C84.7574 22.2299 84.0696 23.7913 83.6742 24.6431C82.9445 26.0784 82.0105 28.2176 81.4239 29.6655C81.0599 30.5275 80.8833 31.1868 80.8353 31.6669C80.7954 31.988 80.8833 32.1795 81.0833 32.142C81.3634 32.0984 81.7758 31.7525 82.2769 31.1448C82.7909 30.4692 83.1049 30.021 84.2506 28.1168L84.6663 27.4579C84.9968 26.916 87.6075 22.627 88.3924 21.565C90.4984 18.4083 92.8769 16.1709 94.4043 15.9227C95.4077 15.749 96.2172 16.3243 96.6074 17.4886C96.8828 18.4392 96.9372 18.5046 97.6084 18.8687C98.682 19.4035 99.0339 19.8562 98.9512 20.5435C98.9113 21.0337 98.765 21.4135 98.0825 22.7612C97.5989 23.8 97.1364 24.8541 96.6953 25.9224C95.8975 27.9061 95.4609 29.2563 96.2345 29.6007C96.5276 29.7278 97.0694 29.3778 97.7459 28.4779C98.4941 27.4817 99.0238 26.4952 99.6124 25.342ZM85.7789 15.3884C87.0964 15.0937 88.2473 13.6022 88.3513 12.0626C88.446 10.5261 87.46 9.52587 86.149 9.82213C84.8287 10.1199 83.6734 11.6099 83.577 13.1515C83.4718 14.6845 84.4643 15.6862 85.7789 15.3884ZM65.7469 8.10885C63.0056 12.6319 60.0608 18.3921 57.392 24.1448C58.8733 23.72 60.3609 23.3303 61.8539 22.9759C63.006 17.6431 64.3795 12.1832 65.7469 8.10885ZM66.4355 22.0111C67.2228 21.8653 69.7831 21.4839 69.6847 22.8331C69.5339 25.0072 68.8821 24.9748 66.5923 25.5917C66.1339 25.7204 65.6749 25.8455 65.2152 25.9669C65.1801 26.1128 65.143 26.1979 65.1164 26.203C64.2537 31.2866 64.1856 33.209 63.7119 37.6353C63.5083 39.574 63.8103 41.6595 61.9732 41.9781C60.1365 42.3128 59.502 39.9341 59.5129 37.9058C59.5193 34.3161 60.9609 27.2781 60.9682 27.2366C59.0993 27.8347 57.0953 28.5154 55.1014 29.2968C52.7258 34.3653 48.3961 46.5765 47.8604 49.6284C47.4246 52.075 46.5458 52.8245 45.2473 52.1079C43.9553 51.4039 43.2332 49.7823 43.6763 47.9444C44.8821 42.8922 49.4403 31.9505 49.512 31.753C47.8213 32.6064 46.245 33.522 44.8861 34.4959C44.0443 35.0976 42.9704 34.5238 42.7422 33.2556C42.5915 32.3435 42.2569 30.567 43.9012 29.6229C46.5385 28.1127 49.406 26.8497 52.2694 25.8125C58.3547 12.9545 65.9013 -0.237797 68.0758 0.00580135C69.0236 0.106583 68.876 1.38737 69.7045 2.54712C70.5289 3.69927 70.645 4.40981 69.6569 7.47225C67.6517 13.7627 67.8166 12.2941 65.8767 22.1175C66.0678 22.0841 66.2488 22.0456 66.4355 22.0111ZM69.3425 39.8308C70.8457 39.6373 75.2399 38.4274 75.2838 32.3668C75.2939 30.021 73.5092 28.7843 73.0754 27.149C72.7957 26.1386 72.863 24.0536 74.1321 23.4272C75.6998 22.6518 76.0244 23.9463 76.5658 24.9141C76.7907 25.3111 77.5087 25.2164 77.7542 24.8938C78.0965 24.4471 78.5963 23.7786 78.812 22.6437C79.0023 21.6035 78.1235 19.8557 75.57 19.9641C74.6775 19.9889 73.4149 20.1799 71.6266 22.3226C70.8018 23.3086 68.1762 27.8195 70.1197 31.6928C70.6442 32.7441 71.9056 34.0295 71.0945 35.017C69.829 36.549 67.6553 34.1758 67.2421 33.4592C67.0559 33.1295 66.5165 32.7441 66.1621 33.3974C65.9574 33.7722 64.9822 35.956 65.1329 36.7632C65.572 39.2828 68.1601 39.9796 69.3425 39.8308Z" fill="#0358A6" fill-opacity="0.64"/>
</svg>
