<svg width="168" height="35" viewBox="0 0 168 35" fill="none" xmlns="http://www.w3.org/2000/svg">
<path fill-rule="evenodd" clip-rule="evenodd" d="M164.639 7.96749C164.709 5.83079 164.325 4.02373 163.414 2.70909C160.614 -1.19296 153.927 1.43624 148.535 8.54202C143.109 15.6491 141.009 24.562 143.774 28.4641C146.574 32.3675 153.261 29.7787 158.687 22.6729C159.528 21.5225 160.333 20.3317 160.998 19.1395L152.072 18.0725L164.99 16.0999L150.74 13.717L168 11.6233L153.927 9.93868L164.639 7.96749Z" fill="#0358A6" fill-opacity="0.64"/>
<path fill-rule="evenodd" clip-rule="evenodd" d="M130.996 7.95239C132.012 7.95239 132.957 8.32108 133.587 8.32108C133.762 8.2807 133.902 8.32108 133.902 8.609C133.902 8.69103 133.867 8.73273 133.867 8.81483C133.867 9.18484 134.041 10.0056 134.041 11.0323C134.041 11.444 133.937 11.5665 133.692 11.5665C133.412 11.5665 133.342 11.3619 133.306 11.1144C133.236 10.4981 133.166 10.2115 132.887 9.88191C132.431 9.30732 131.766 9.06111 130.821 9.06111C129.211 9.06111 128.371 10.1698 128.441 11.5248C128.51 13.0868 129.561 13.9076 131.416 15.1818C133.971 17.0306 134.742 18.2213 134.742 20.2343C134.742 22.4113 133.272 24.8346 129.631 24.8346C128.72 24.8346 127.81 24.6704 127.005 24.2587C126.689 24.0945 126.655 24.0124 126.655 23.3141C126.619 22.4517 126.619 21.3013 126.655 20.8909C126.725 20.6447 126.759 20.4805 127.04 20.4805C127.25 20.4805 127.356 20.6029 127.39 20.9326C127.39 21.1371 127.424 21.5475 127.496 21.9176C127.88 23.5617 129.211 23.7662 130.121 23.7662C131.942 23.7662 132.992 22.4517 132.992 21.0551C132.992 19.2884 132.116 18.3438 129.665 16.701C127.215 15.0998 126.725 13.4151 126.759 11.9769C126.829 9.55353 128.405 7.95239 130.996 7.95239ZM60.1021 16.413C60.1021 15.4281 60.1377 11.444 60.1377 8.48652C60.1377 8.40311 60.1021 8.32108 59.9977 8.32108H57.0562C56.7065 8.32108 56.601 8.40311 56.601 8.73273C56.601 8.97902 56.6721 9.1015 56.8819 9.14313C57.8613 9.22523 58.0023 9.75943 58.0367 11.1561C58.0723 13.2093 58.0723 14.7701 58.0723 16.413C58.0723 18.5496 58.0367 21.343 57.9668 24.3004C57.9668 24.4228 58.0367 24.5062 58.1066 24.5062H59.9977C60.1021 24.5062 60.1376 24.4228 60.1376 24.3004C60.1021 21.3846 60.1021 18.8376 60.1021 16.413H60.1021ZM116.187 15.9623C116.537 16.6189 116.887 17.1947 117.168 17.7289C117.168 19.6583 117.132 21.9175 117.098 24.3004C117.098 24.4228 117.132 24.5062 117.238 24.5062H119.093C119.198 24.5062 119.268 24.4228 119.268 24.3004C119.233 21.9176 119.198 19.7404 119.198 17.7289C120.773 14.7701 122.594 11.5248 124.274 8.52691C124.344 8.40318 124.309 8.32108 124.204 8.32108H121.544C121.229 8.32108 121.089 8.40311 121.089 8.73273C121.089 8.97902 121.193 9.1015 121.403 9.14313C121.964 9.26693 122.103 9.67733 121.788 10.2936C120.809 12.2244 119.723 14.2359 118.672 16.2085C118.393 15.6743 118.113 15.1818 117.833 14.6476C116.677 12.5931 115.732 10.8278 114.472 8.48652C114.402 8.36279 114.366 8.32108 114.192 8.32108H112.021C111.916 8.32108 111.881 8.40311 111.951 8.52691C113.457 11.1144 115.171 14.1539 116.187 15.9623ZM109.43 24.3004C109.5 24.4228 109.535 24.5062 109.64 24.5062H111.706C111.811 24.5062 111.846 24.4228 111.811 24.3004C110.691 21.4667 109.5 18.2617 108.8 16.2906C107.435 12.5931 106.84 10.6636 106.175 8.48652C106.139 8.40311 106.069 8.32108 105.965 8.32108H103.689C103.373 8.32108 103.233 8.40311 103.233 8.73273C103.233 8.97902 103.339 9.1015 103.549 9.14313C104.004 9.22523 104.354 9.43112 104.354 10.1294C104.354 10.4981 104.214 10.9502 104.039 11.4439C103.409 13.3331 102.884 14.7701 102.324 16.2906C101.623 18.2617 100.433 21.4667 99.3126 24.3004C99.2781 24.4228 99.3125 24.5062 99.418 24.5062H100.713C100.818 24.5062 100.888 24.4228 100.924 24.3004C101.413 22.8217 101.869 21.5475 102.288 20.2746H108.03C108.486 21.6308 108.975 23.0275 109.431 24.3004H109.43ZM102.708 18.96C102.918 18.3855 103.129 17.811 103.303 17.2351C103.829 15.7564 104.319 14.3597 105.089 12.1827C105.895 14.3597 106.385 15.7564 106.91 17.2351C107.12 17.8109 107.33 18.3855 107.539 18.96H102.708ZM95.7415 8.32108C95.4261 8.32108 95.2862 8.40311 95.2862 8.73273C95.2862 8.97902 95.4261 9.1015 95.6016 9.14313C96.1968 9.26693 96.3366 9.84145 96.1623 10.5398C95.6016 12.3469 95.1463 13.9494 94.6566 15.5922C94.2369 16.9889 93.816 18.3438 93.2209 20.3567C92.5557 18.2617 92.136 17.0306 91.6807 15.5922C90.9457 13.3331 90.3505 11.5248 89.4755 8.77312C89.37 8.48652 89.3001 8.32108 89.0547 8.32108C88.8103 8.32108 88.7404 8.48652 88.6349 8.77312C87.7944 11.5248 87.2347 13.3331 86.534 15.5922C86.0788 16.9889 85.659 18.3438 84.9939 20.3567C84.3643 18.2617 83.9791 17.0306 83.5238 15.5922C82.8231 13.3331 82.1935 11.2382 81.3529 8.48652C81.3174 8.40311 81.283 8.32108 81.1786 8.32108H79.182C79.0777 8.32108 79.0422 8.36279 79.0777 8.48652C80.0227 11.2382 81.0731 14.5239 81.7027 16.4964C82.8586 20.2343 83.4183 21.9175 84.1189 24.2183C84.2233 24.5883 84.2944 24.7929 84.5386 24.7929C84.8185 24.7929 84.924 24.4645 84.9939 24.2183C85.5891 22.2875 86.9893 18.0155 87.4801 16.4964C87.8299 15.4281 88.2152 14.3193 88.6705 13.0451C89.1601 14.4418 89.37 15.058 89.8253 16.4964C91.05 20.2343 91.6452 21.9175 92.3814 24.2183C92.5213 24.5883 92.5913 24.7929 92.8367 24.7929C93.1165 24.7929 93.1864 24.4645 93.2908 24.2183C93.8516 22.2875 95.1463 18.0155 95.6371 16.4964C96.1968 14.7297 97.4227 10.9919 98.2621 8.48652C98.332 8.40311 98.2621 8.32108 98.1577 8.32108H95.7415ZM26.5291 8.32108C24.4638 8.32108 23.4134 8.2807 20.9272 8.23899C20.8573 8.23899 20.8217 8.32101 20.7873 8.40318L20.5075 9.79981C20.5075 9.92354 20.5418 10.0056 20.6818 10.0056C22.1531 9.92361 23.9031 9.84145 25.5132 9.79981C25.5487 11.8544 25.5487 14.8118 25.5487 16.413C25.5487 18.5496 25.5132 21.343 25.4432 24.3004C25.4432 24.4228 25.4787 24.5062 25.5831 24.5062H27.4741C27.544 24.5062 27.614 24.4228 27.614 24.3004C27.5796 21.3846 27.5796 18.8376 27.5796 16.413C27.5796 15.5922 27.5796 12.4706 27.614 9.79981C29.1542 9.84152 30.6953 9.92354 32.3054 10.0056C32.3754 10.0056 32.4454 9.96525 32.4454 9.84145L32.7252 8.44482C32.7607 8.32108 32.6896 8.23899 32.6197 8.23899C30.1002 8.2807 28.5945 8.32101 26.5291 8.32101V8.32108ZM51.7008 24.3004C51.7353 24.4228 51.8052 24.5061 51.8751 24.5061H53.9404C54.046 24.5061 54.1159 24.4228 54.046 24.3004C52.9256 21.4666 51.7353 18.2616 51.0357 16.2905C49.6699 12.593 49.0747 10.6635 48.4096 8.48645C48.374 8.40304 48.3041 8.32101 48.1997 8.32101H45.9234C45.6091 8.32101 45.4693 8.40304 45.4693 8.73266C45.4693 8.97895 45.5736 9.10143 45.7835 9.14306C46.2387 9.22516 46.5885 9.43105 46.5885 10.1294C46.5885 10.4981 46.4486 10.9501 46.2743 11.4438C45.6436 13.333 45.1184 14.7701 44.5587 16.2905C43.858 18.2616 42.6676 21.4666 41.5473 24.3004C41.5129 24.4228 41.5473 24.5061 41.6528 24.5061H42.9831C43.053 24.5061 43.1229 24.4228 43.1585 24.3004C43.6482 22.8216 44.1034 21.5474 44.5232 20.2746H50.265C50.7203 21.6308 51.21 23.0275 51.7008 24.3004ZM44.9429 18.96C45.1538 18.3855 45.3637 17.811 45.5381 17.2351C46.0644 15.7564 46.5541 14.3597 47.3247 12.1827C48.1298 14.3597 48.6539 15.7564 49.1802 17.2351C49.3545 17.8109 49.5644 18.3855 49.7743 18.96H44.9429ZM68.2946 9.55353C68.6444 9.51321 69.1352 9.47151 69.6249 9.47151C71.6558 9.47151 72.9505 10.5802 72.9505 13.1689C72.9505 15.1818 72.0411 16.783 69.9403 16.783C69.2751 16.783 68.61 16.6606 68.2591 16.5368C68.2591 15.1818 68.2946 12.8406 68.2946 9.5536V9.55353ZM70.6398 17.9751C72.181 20.6863 73.056 22.1234 74.1409 23.2737C75.0514 24.2183 76.1362 24.6287 77.3966 24.6287C78.3771 24.6287 79.3919 24.4646 79.3919 24.0945C79.3919 23.8483 79.2176 23.8079 78.6924 23.7245C77.642 23.52 76.9413 23.15 75.7165 21.8771C74.736 20.8505 73.6157 19.1659 72.5308 17.2768C73.8966 16.413 75.0158 14.8118 75.0158 12.7168C75.0158 9.22523 72.1455 8.32108 69.9403 8.32108H65.2133C64.899 8.32108 64.7591 8.40311 64.7591 8.73273C64.7591 8.97902 64.8635 9.1015 65.0733 9.14313C66.0195 9.22523 66.1593 9.75943 66.1938 11.1561C66.2293 13.2093 66.2293 14.7701 66.2293 16.413C66.2293 18.5496 66.2293 21.343 66.1238 24.3004C66.1238 24.4228 66.1937 24.5062 66.2992 24.5062H68.1547C68.2591 24.5062 68.2946 24.4228 68.2946 24.3004C68.2946 21.9592 68.2591 19.8225 68.2591 17.8513C68.8898 17.9334 69.5194 18.0155 70.3255 17.975H70.6398V17.9751ZM13.9605 23.0679C13.925 20.8088 13.925 18.7555 13.925 16.8247C14.8355 16.8651 16.4456 17.0306 17.7059 17.1114C17.8114 17.1114 17.8469 17.071 17.8813 16.9472L18.1612 15.5519C18.1612 15.4281 18.1268 15.346 18.0213 15.346C16.5511 15.4281 15.3263 15.4684 13.925 15.4684C13.925 14.1135 13.925 11.7723 13.9605 9.67733C15.1153 9.71765 16.4112 9.88184 18.0568 10.0056C18.1612 10.0056 18.1967 9.96525 18.2311 9.84145L18.5109 8.44482C18.5109 8.32108 18.4766 8.23899 18.3711 8.23899C16.5155 8.2807 15.011 8.32101 13.3654 8.32101H10.8448C10.5294 8.32101 10.3895 8.40318 10.3895 8.73273C10.3895 8.97902 10.4949 9.1015 10.7048 9.14313C11.6842 9.22523 11.8253 9.75943 11.8597 11.1561C11.8952 13.2093 11.8952 14.7701 11.8952 16.413C11.8952 18.5496 11.8597 21.343 11.7897 24.3004C11.7897 24.4228 11.8253 24.5062 11.9296 24.5062H13.8207C15.3607 24.5062 16.9009 24.5466 18.5465 24.5466C18.6519 24.5466 18.6864 24.5063 18.7219 24.3825L18.9662 22.9858C19.0018 22.8633 18.9662 22.78 18.8618 22.78C16.9708 22.9441 15.2553 23.0275 13.9605 23.0679ZM5.80353 8.48652C5.80353 8.40311 5.73362 8.32108 5.6281 8.32108H2.54674C2.23251 8.32108 2.09257 8.40311 2.09257 8.73273C2.09257 8.97902 2.19696 9.1015 2.40793 9.14313C3.42279 9.26693 3.63269 9.63563 3.66824 11.1561C3.70266 13.2093 3.70266 14.7701 3.70266 16.413C3.70266 19.4538 3.70266 21.6309 3.66824 23.7245C3.63269 26.8879 3.49281 28.8603 2.82768 30.3795C1.56737 33.2144 0.026123 33.2144 0.026123 33.7473C0.026123 33.9948 0.201546 34.159 0.377028 34.1173C1.04217 33.9531 5.76798 31.8999 5.76798 24.3421C5.76798 21.6713 5.73362 19.4121 5.73362 16.413C5.73362 15.4281 5.76798 11.444 5.80353 8.48652Z" fill="#0358A6" fill-opacity="0.64"/>
</svg>
