<svg width="97" height="86" viewBox="0 0 97 86" fill="none" xmlns="http://www.w3.org/2000/svg">
<path d="M42.2751 68.2754C42.2317 68.2754 41.7662 68.4392 41.2417 68.6395C40.5529 68.9016 40.2456 69.0436 40.1432 69.1529L40.0005 69.3022V81.7071L40.106 82.1878C40.4722 83.8699 41.2976 84.9367 42.6785 85.5157C43.625 85.9125 44.7886 86.0582 45.9895 85.9271C46.6722 85.8543 47.2184 85.7451 47.9166 85.5412C48.5713 85.3482 48.7327 85.2717 48.7761 85.1115C48.8103 84.9841 48.5465 83.9901 48.4379 83.8444C48.3386 83.7097 48.2579 83.7243 47.6466 83.9646C46.7653 84.3141 46.2378 84.4234 45.4558 84.4197C44.9252 84.4161 44.7048 84.3906 44.4132 84.2996C43.6436 84.0593 43.1316 83.626 42.8523 82.9742C42.5823 82.3443 42.5792 82.3188 42.5792 77.7421L42.5761 73.5622H48.019L48.1524 73.402C48.2828 73.2527 48.289 73.2163 48.289 72.7757C48.289 72.3643 48.2765 72.2951 48.1772 72.1604L48.0655 72.0074L45.3224 71.9929L42.5761 71.9783V68.5448L42.4644 68.4101C42.4023 68.3373 42.3154 68.2754 42.2751 68.2754ZM30.6228 71.2829C29.5864 71.2938 28.5779 71.4249 27.7028 71.6834C26.0457 72.1749 24.8696 73.2454 24.4817 74.6217C24.3824 74.9749 24.3607 75.1679 24.3576 75.6303C24.3545 76.2711 24.4166 76.6461 24.6152 77.1377C25.0589 78.2482 26.0799 78.9909 27.6966 79.3805C28.3079 79.5298 28.8013 79.5881 30.5266 79.7191C32.4133 79.8611 33.0712 79.9849 33.6825 80.3126C34.269 80.6258 34.4986 81.019 34.5328 81.7873C34.5638 82.4645 34.4552 82.774 33.9928 83.3165C33.7105 83.6478 33.5491 83.7825 33.1984 83.9864C31.2373 85.1188 28.0441 84.7001 25.2017 82.9415C24.7238 82.6429 24.699 82.6356 24.5779 82.7121C24.4476 82.7995 24.0628 83.5532 24.0194 83.8117C23.979 84.041 24.0783 84.1721 24.4662 84.4015C25.5989 85.0715 27.0604 85.5921 28.4382 85.8179C29.3816 85.9744 29.3381 85.9744 30.8059 85.9562C31.8796 85.9417 32.2768 85.9162 32.764 85.8288C34.8462 85.4501 36.2147 84.6637 36.9067 83.4512C37.2449 82.8577 37.338 82.4936 37.3659 81.678C37.3815 81.1501 37.369 80.9171 37.3101 80.644C37.0122 79.3041 36.1309 78.3428 34.7128 77.8149C33.9153 77.5163 32.8943 77.3598 30.6446 77.185C29.2575 77.0794 28.8013 77.0175 28.37 76.8791C27.7338 76.6752 27.3552 76.3803 27.1473 75.9325C27.0015 75.6157 27.0077 74.8584 27.1566 74.4178C27.3087 73.9627 27.678 73.5185 28.1279 73.2418C28.8044 72.8303 29.5305 72.6738 30.7377 72.6738C32.4568 72.681 34.0487 73.0925 35.5165 73.919C35.8578 74.112 36.1712 74.2685 36.2147 74.2685C36.3233 74.2685 36.4567 74.0901 36.677 73.6459C36.8974 73.2017 36.9098 73.0597 36.7515 72.8849C36.6057 72.7284 35.7027 72.2732 35.0324 72.0184C33.7136 71.5232 32.1372 71.272 30.6228 71.2829ZM57.4401 71.4722C56.8598 71.4722 56.2733 71.4941 55.9723 71.5378C54.9359 71.6907 53.8001 72.0257 52.8723 72.4517C52.3106 72.7102 51.3114 73.2672 51.2059 73.3801C51.0507 73.544 51.1004 73.8025 51.4324 74.6363C51.5566 74.9421 51.631 74.9276 52.6613 74.3304C54.939 73.0087 56.9405 72.6191 58.8024 73.1325C60.146 73.5039 61.0273 74.3377 61.3687 75.5611C61.4524 75.8669 61.5176 77.8404 61.4431 77.9241C61.4152 77.9569 61.2197 77.9278 60.9156 77.844C58.5355 77.185 56.2671 77.0466 54.3121 77.4362C51.659 77.9642 50.2377 79.4534 50.2408 81.6999C50.2408 82.8395 50.5139 83.6442 51.1407 84.376C51.8607 85.2098 52.8195 85.6722 54.3246 85.9016C54.9855 86.0036 56.9033 85.9708 57.5766 85.847C58.9296 85.5994 60.2298 85.046 61.1142 84.3396C61.26 84.2267 61.3997 84.1321 61.4276 84.1321C61.4586 84.1321 61.4773 84.3287 61.4773 84.6746C61.4773 85.6395 61.499 85.654 62.7992 85.654C63.8977 85.654 63.9908 85.6285 64.0777 85.2863C64.1149 85.1443 64.1242 83.8335 64.1118 80.8078C64.0932 76.6971 64.0901 76.5114 63.997 76.0672C63.7984 75.1169 63.5222 74.4433 63.0568 73.7624C62.253 72.59 60.838 71.8363 58.8768 71.5378C58.5914 71.4941 58.0173 71.4722 57.4401 71.4722ZM89.5947 71.4722C88.9958 71.4759 88.3938 71.5086 88.037 71.5669C86.5971 71.7963 85.1572 72.3315 83.7639 73.1544C83.283 73.4347 83.2612 73.533 83.5126 74.2212C83.6957 74.7237 83.7826 74.8693 83.9067 74.8693C83.9532 74.8693 84.2884 74.6872 84.6546 74.4615C86.8485 73.1252 88.8158 72.6665 90.7057 73.0488C92.1424 73.3401 93.1571 74.1775 93.5512 75.3936C93.6629 75.7395 93.6722 75.8451 93.6909 76.8791L93.7126 77.9897L93.5791 77.9569C93.5047 77.9387 93.213 77.8622 92.9275 77.7858C92.2883 77.6146 91.2518 77.4071 90.566 77.3124C89.7995 77.2068 87.8818 77.2214 87.0967 77.3379C84.4404 77.7384 82.8951 78.94 82.532 80.8843C82.4203 81.4887 82.4575 82.3553 82.6251 82.9706C82.7647 83.484 83.0968 84.1066 83.4133 84.4488C84.1053 85.1989 85.2162 85.7086 86.5506 85.9016C87.2395 85.9999 88.6824 85.9999 89.3992 85.9016C90.9446 85.6904 92.2976 85.1625 93.303 84.3797C93.4768 84.2413 93.6412 84.1321 93.6629 84.1321C93.6847 84.1321 93.7002 84.3578 93.7002 84.6382C93.7002 84.9185 93.725 85.228 93.7529 85.3227C93.8429 85.6249 93.9577 85.654 95.019 85.654C95.5434 85.654 96.0244 85.6322 96.0865 85.6031C96.3565 85.4829 96.3471 85.5958 96.3471 81.1137C96.3471 78.4958 96.3285 76.85 96.2975 76.5842C96.0648 74.5999 95.1524 73.1216 93.6847 72.3351C93.0051 71.9747 92.0586 71.6761 91.1246 71.5378C90.7863 71.4868 90.1936 71.4649 89.5947 71.4722ZM67.3701 71.7599L67.2336 71.9201L67.0939 72.0803L67.097 78.6633C67.097 85.7341 67.0877 85.421 67.3329 85.5776C67.4818 85.6759 69.3096 85.6868 69.4865 85.5921C69.7347 85.4574 69.7409 85.4064 69.7409 83.098V80.9717H72.5648L74.346 82.672C77.1388 85.3409 77.1822 85.3809 77.4025 85.5084C77.6042 85.6249 77.6725 85.6285 79.0379 85.6431C80.4219 85.6577 80.4684 85.6577 80.5584 85.5484C80.6701 85.4174 80.6794 85.2353 80.5863 85.0751C80.546 85.0096 79.4909 84.0483 78.2404 82.9342C76.9898 81.8237 75.9565 80.8916 75.9441 80.8661C75.9285 80.8406 76.0713 80.8042 76.2544 80.7823C77.9983 80.5857 79.4413 79.5735 80.0526 78.1098C80.2978 77.52 80.3784 77.1377 80.4095 76.3912C80.4591 75.1497 80.1643 74.1629 79.4971 73.3255C79.0379 72.7502 78.2093 72.2077 77.3684 71.9383L76.9153 71.7926L67.3701 71.7599ZM0.466612 71.7635L0.392448 71.8946C0.328523 72.0074 0.38531 72.2077 0.38531 72.2077C0.421306 72.306 6.84324 85.4356 6.96736 85.5339C7.12252 85.6577 7.13493 85.6613 8.38921 85.6431L9.65622 85.6285L9.76918 85.4938C9.93395 85.2972 16.2972 72.2223 16.2972 72.0803C16.2972 72.0147 16.2631 71.9164 16.2197 71.8618C16.1514 71.7744 16.0614 71.7635 15.4094 71.7635H14.674L14.5402 71.9128C14.4667 71.9965 8.89068 83.524 8.84351 83.4658C8.84351 83.4658 3.29915 71.8654 3.22778 71.829L0.466612 71.7635ZM18.8015 71.7635L18.6866 71.8982L18.5718 72.0293V85.3373L18.7084 85.4975L18.8449 85.654H20.9954L21.1319 85.4975L21.2653 85.3373V72.0511L21.1443 71.9055L21.0233 71.7635H18.8015ZM69.7673 73.2053H72.6439C75.2536 73.2053 75.5515 73.2163 75.8215 73.3037C76.7028 73.5877 77.3234 74.396 77.5251 75.521C77.6275 76.089 77.5903 76.8755 77.4289 77.4654C77.1527 78.4885 76.5755 79.1147 75.6508 79.3951C75.325 79.4934 75.1171 79.5007 72.5229 79.5007H69.7424L69.7673 73.2053ZM57.0538 78.5977C57.7613 78.5868 58.5588 78.656 59.4339 78.798C60.1786 78.9181 61.3857 79.2058 61.4416 79.2713C61.4633 79.2968 61.4757 80.0614 61.4664 80.9753L61.454 82.632L61.153 82.8686C60.5106 83.3638 59.6076 83.859 58.8908 84.103C58.0716 84.3833 57.5316 84.4671 56.4859 84.4853C55.949 84.4962 55.4587 84.4925 55.3936 84.478C53.901 84.1612 53.181 83.3966 53.0259 81.9693C52.9297 81.07 53.1345 80.349 53.6558 79.7774C54.3478 79.0164 55.4929 78.6232 57.0538 78.5977ZM89.407 78.5977C90.3907 78.5904 91.5202 78.7288 92.7646 79.0128C93.1556 79.1038 93.5279 79.2021 93.59 79.2276L93.7048 79.2786L93.6924 80.9535L93.68 82.632L93.3542 82.8905C92.9787 83.1854 92.1533 83.6769 91.6816 83.8845C91.182 84.1066 90.3659 84.3396 89.7763 84.4306C89.2022 84.518 87.8989 84.5289 87.4986 84.4525C86.8035 84.3141 86.1208 83.9209 85.7856 83.4585C85.1619 82.6065 85.0626 81.0554 85.5777 80.1779C86.1797 79.1511 87.5296 78.6123 89.407 78.5977Z" fill="#0358A6" fill-opacity="0.64"/>
<path d="M48.3425 0.387695L48.1563 0.540982C47.3898 1.1636 45.5311 3.20984 44.4698 4.59816C43.4057 5.99163 42.4209 7.46578 41.5218 9.01106C41.2891 9.41522 41.0719 9.76111 41.0408 9.78078C41.0098 9.80007 40.6188 9.73417 40.1719 9.63441C37.3915 9.01289 34.3629 8.76675 31.8369 8.95827C30.5336 9.05731 30.0185 9.14542 29.9564 9.28014C29.8819 9.44944 29.7671 10.8469 29.7268 12.1798C29.6368 14.959 29.8168 17.8587 30.2605 20.7541C30.3536 21.3512 30.4405 21.9265 30.4529 22.032C30.4777 22.2214 30.4777 22.225 29.9285 22.6583C27.7346 24.3951 25.5593 26.5797 23.8494 28.7716C23.325 29.4415 22.5896 30.4937 22.5182 30.6758C22.4747 30.7777 22.512 30.8542 22.7478 31.222C24.3273 33.6469 27.2412 36.7527 29.8726 38.8135C30.1985 39.0683 30.4715 39.3014 30.4839 39.3305C30.4933 39.3596 30.4312 39.8147 30.3474 40.339C29.8757 43.2519 29.6957 45.7459 29.7361 48.7461C29.7578 50.3227 29.8478 51.892 29.9347 52.2233C29.9533 52.2888 30.065 52.3252 30.3629 52.3726C33.0409 52.7877 36.9509 52.5728 40.1471 51.8337C40.5319 51.7427 40.8981 51.6735 40.9601 51.6735C41.0594 51.6735 41.1432 51.7864 41.4722 52.3653C42.2355 53.7088 43.4302 55.5111 44.417 56.8183C45.6583 58.464 48.0756 61.0964 48.3425 61.0964C48.3829 61.0964 48.5939 60.9326 48.8111 60.7323C49.4721 60.1206 50.1858 59.356 51.1105 58.2528C52.69 56.3777 54.0337 54.448 55.2563 52.307C55.4425 51.983 55.6256 51.7063 55.6628 51.6881C55.7001 51.6735 56.0631 51.7354 56.4696 51.8264C59.0111 52.409 61.8691 52.6748 64.2896 52.551C65.7046 52.4782 66.589 52.3653 66.6666 52.2415C66.7938 52.0449 66.9179 50.0351 66.9179 48.1308C66.9179 45.4183 66.7131 42.8695 66.2911 40.35C66.2042 39.8329 66.1421 39.3778 66.1545 39.3414C66.1669 39.305 66.3997 39.1047 66.6728 38.8936C68.3826 37.5755 70.1638 35.8715 71.7402 34.0474C72.9845 32.6092 74.2072 30.978 74.2072 30.7595C74.2072 30.5775 73.1459 29.1175 72.1467 27.9268C70.6106 26.0918 68.6277 24.162 66.7907 22.7166C66.3314 22.3525 66.1732 22.2032 66.1732 22.1158C66.1732 22.0539 66.2383 21.6352 66.3128 21.1873C66.7907 18.339 67.0234 14.8858 66.9179 12.1591C66.8558 10.5283 66.7597 9.40174 66.6666 9.25647C66.5331 9.04456 64.3888 8.87598 62.3904 8.91931C60.3424 8.96337 58.6822 9.15671 56.6993 9.58307C56.2152 9.68793 55.7714 9.77422 55.7125 9.77386C55.6349 9.77349 55.5294 9.63076 55.2625 9.16435C53.8723 6.73616 52.1563 4.34729 50.4216 2.42739C49.7731 1.70829 48.8328 0.768181 48.5256 0.530788L48.3425 0.387695ZM48.3487 2.09205C48.5225 2.09205 50.5054 4.31853 51.4798 5.60599C52.7335 7.26119 54.4091 9.85833 54.3719 10.0873C54.3595 10.1522 54.1671 10.2399 53.6613 10.4088C53.2765 10.537 52.9321 10.643 52.8917 10.6441C52.8483 10.6451 52.7583 10.545 52.6869 10.4209C52.448 9.99923 51.5387 8.61128 51.0702 7.95226C50.1982 6.73398 48.5287 4.81589 48.3394 4.81589C48.237 4.81589 47.5109 5.58415 46.7785 6.46563C45.86 7.57469 44.7149 9.21241 44.0323 10.387C43.8492 10.703 43.8368 10.7038 43.0517 10.4347C42.3255 10.1857 42.3069 10.1773 42.3069 10.0735C42.3069 9.97229 42.6482 9.39082 43.3558 8.27558C44.6622 6.22351 46.22 4.22787 47.7622 2.62328C48.0446 2.33127 48.3084 2.09205 48.3487 2.09205ZM48.3394 6.55957C48.4232 6.55957 49.2735 7.54993 49.8631 8.33529C50.5861 9.29506 51.6411 10.9062 51.6411 11.0475C51.6411 11.0934 51.5481 11.1669 51.4208 11.2212C50.8064 11.4837 49.4162 12.1423 48.9104 12.411C48.5939 12.5785 48.3239 12.7143 48.3053 12.7125C48.2898 12.7107 48.1191 12.6222 47.9267 12.5166C47.3992 12.2257 46.2355 11.6624 45.6273 11.4018C45.3294 11.2736 45.0749 11.1356 45.0594 11.0952C44.9973 10.9011 46.5365 8.65097 47.6877 7.25573C48.0043 6.87306 48.2991 6.55957 48.3394 6.55957ZM62.8745 10.2235C63.1166 10.2235 63.3555 10.2272 63.5975 10.2337C65.0808 10.2738 65.5867 10.3142 65.6611 10.4023C65.7418 10.4981 65.8101 11.933 65.8101 13.5605C65.807 21.5988 63.7124 29.4561 59.9172 35.6749L59.5231 36.323L59.6224 37.2551C59.7807 38.7516 59.8272 39.8147 59.7993 41.3185C59.7714 42.8368 59.6969 43.8672 59.6069 43.9801C59.5045 44.1039 58.3439 44.2058 56.9351 44.2094C55.5635 44.2167 54.8032 44.1657 53.7327 43.991C53.3137 43.9218 53.081 43.9072 53.0252 43.94C52.9786 43.9691 52.7521 44.1548 52.5224 44.3478C51.8149 44.9449 51.3308 45.2981 51.216 45.2945C51.1571 45.2945 50.8871 45.1743 50.6202 45.0323C49.9282 44.6609 49.6427 44.4862 49.6427 44.4279C49.6427 44.3624 49.652 44.3551 50.6885 43.5577C51.1478 43.2045 51.7901 42.6802 52.1159 42.3889C52.4759 42.0722 52.7521 41.8646 52.8203 41.8646C52.8793 41.8646 53.1865 41.9265 53.503 42.003C54.8001 42.3125 56.5379 42.4727 57.6395 42.3853C58.0305 42.3525 58.1422 42.327 58.164 42.2579C58.1795 42.2105 58.2043 41.7772 58.2198 41.2966C58.2601 39.9677 58.1391 38.362 57.8785 36.851C57.8133 36.4759 57.7605 36.1228 57.7605 36.0609C57.7605 36.0026 57.9871 35.5948 58.2664 35.1615C59.9234 32.5618 61.3447 29.507 62.2973 26.4996C63.2996 23.3428 63.9048 20.1496 64.1344 16.8294C64.1996 15.874 64.2151 13.6311 64.1592 12.8658C64.1282 12.4027 64.1096 12.3247 64.0227 12.2683C63.8799 12.1751 61.2702 12.1409 60.3641 12.2206C57.4254 12.478 54.5395 13.2405 51.6536 14.5206L51.3619 14.6499L51.1664 14.5174C51.0578 14.4442 50.7381 14.2305 50.4558 14.044C49.8382 13.6337 49.6986 13.5088 49.7606 13.4309C49.832 13.3471 51.2067 12.7089 52.0694 12.3601C55.5666 10.9492 59.2469 10.2224 62.8745 10.2235ZM33.6026 10.237C34.6049 10.2363 35.6631 10.2694 36.3178 10.3393C40.8298 10.821 44.6653 12.0611 48.4046 14.2483C49.9468 15.1505 51.1633 16.0167 52.8948 17.444L53.1027 17.6159L53.5434 17.5358C54.9739 17.2791 57.3199 17.1891 58.676 17.3384C59.4642 17.4254 59.5759 17.4517 59.6255 17.558C59.7652 17.8653 59.8614 21.0089 59.7714 22.4398C59.7434 22.9205 59.6752 23.7324 59.6193 24.2458L59.5231 25.1815L59.7993 25.6366C60.3455 26.5323 60.7551 27.2824 60.752 27.3953C60.752 27.4571 60.5999 27.8941 60.4168 28.3674C60.1686 28.9937 60.0569 29.223 59.9979 29.223C59.9483 29.223 59.8459 29.0847 59.7248 28.848C59.4362 28.2727 58.6915 26.9911 58.2384 26.2884C58.015 25.9388 57.8195 25.6257 57.8009 25.5893C57.7823 25.5529 57.8288 25.1488 57.9064 24.69C58.0957 23.554 58.1888 22.6656 58.2322 21.5842C58.2695 20.6994 58.2291 19.2867 58.1671 19.2103C58.1484 19.1884 57.5371 19.1739 56.8048 19.1739C55.3525 19.1739 54.8312 19.2285 53.531 19.5307C53.1524 19.6181 52.8297 19.6909 52.8079 19.6909C52.7893 19.6909 52.4914 19.4396 52.1501 19.1374C46.9585 14.5552 40.293 11.9697 34.0898 12.1336C33.4381 12.1507 32.833 12.1868 32.743 12.2119C32.6003 12.2527 32.5786 12.2821 32.5382 12.4999C32.4606 12.947 32.4824 16.237 32.5724 17.2925C32.833 20.3426 33.4071 23.3537 34.2294 25.9825C34.3598 26.4013 34.4994 26.8455 34.5366 26.9729L34.6049 27.1986L34.276 27.8649C34.0929 28.2327 33.8943 28.6514 33.8291 28.797C33.6616 29.1866 33.5747 29.1575 33.3916 28.6368C31.9952 24.7045 31.1604 20.521 30.8842 16.0717C30.8222 15.0391 30.8191 12.0273 30.8842 11.136C30.9184 10.632 30.9494 10.4387 31.0053 10.3921C31.117 10.2927 32.3148 10.2377 33.6026 10.237ZM34.0557 13.4243C34.2418 13.4232 34.518 13.4294 34.9463 13.4414C37.7794 13.5197 40.4326 14.0608 43.1913 15.1218C43.8988 15.3945 44.0633 15.4881 44.0105 15.59C43.995 15.6184 43.8243 15.7706 43.6288 15.9286L43.2751 16.2166L42.8717 16.1551C41.8321 15.996 41.3015 15.9614 39.8709 15.9592C38.9121 15.9581 38.1208 15.984 37.7577 16.0291C37.0316 16.119 36.1254 16.2993 36.0696 16.363C36.0106 16.4347 35.9144 17.0082 35.8213 17.8645C35.7034 18.9445 35.7034 22.742 35.8213 23.8234C35.9331 24.8611 35.9362 24.8429 35.6662 25.2944C35.539 25.5056 35.4148 25.684 35.39 25.684C35.3652 25.684 35.3279 25.6403 35.3031 25.5857C35.1821 25.3199 34.6639 23.31 34.4404 22.2396C33.9005 19.68 33.6491 17.5037 33.5933 14.9208C33.5654 13.6894 33.5685 13.6067 33.6491 13.511C33.7019 13.4509 33.7484 13.4262 34.0557 13.4243ZM62.0615 13.4786C62.5952 13.4793 63.0235 13.4997 63.0452 13.5401C63.0917 13.6319 63.0731 15.7655 63.0173 16.596C62.8249 19.4433 62.3842 22.0284 61.6426 24.7082C61.506 25.207 61.3633 25.6439 61.3292 25.6767C61.2826 25.7204 61.2454 25.7058 61.1771 25.6148C61.1243 25.5493 60.994 25.3417 60.8854 25.1597L60.693 24.8283L60.7954 23.8234C60.9382 22.4435 60.9506 19.1811 60.8202 17.9192C60.724 16.9987 60.634 16.4333 60.572 16.3594C60.5099 16.2887 59.8645 16.1635 59.0235 16.0582C58.0181 15.9319 55.7063 15.9344 54.6605 16.0633C53.2206 16.2396 53.382 16.2523 53.0096 15.9337C52.8328 15.7812 52.6869 15.6144 52.6869 15.5645C52.6869 15.4964 52.8359 15.4141 53.2703 15.2408C55.5232 14.3459 58.015 13.7535 60.4417 13.5365C60.8885 13.4968 61.5278 13.4782 62.0615 13.4786ZM45.438 16.1482C45.5962 16.1482 47.0547 16.9572 47.0795 17.0592C47.0888 17.0956 46.8933 17.2787 46.642 17.4662C45.8724 18.0408 45.1928 18.5876 44.5505 19.152C44.1874 19.4724 43.8957 19.6909 43.8305 19.6909C43.7716 19.6909 43.4116 19.6181 43.0268 19.5307C41.8601 19.2612 41.1122 19.1775 39.8461 19.1775C39.1076 19.1775 38.6669 19.1993 38.5862 19.2394C38.4683 19.2976 38.4621 19.3231 38.428 19.8911C38.3535 21.1873 38.49 23.2263 38.7538 24.7482C38.819 25.1196 38.8717 25.4728 38.8717 25.5311C38.8717 25.5857 38.6824 25.9352 38.4466 26.2993C36.6716 29.0847 35.2007 32.3106 34.186 35.6421C33.3016 38.5549 32.7182 41.7918 32.5103 44.9376C32.4606 45.6986 32.4544 48.4439 32.5041 48.9755L32.532 49.2996L32.8113 49.3396C33.3047 49.4052 34.9742 49.4306 35.7127 49.3797C38.7414 49.1758 41.7608 48.4257 44.6405 47.1659L45.3263 46.8674L46.0803 47.3698C46.4961 47.6466 46.8499 47.9014 46.8685 47.9342C46.9244 48.0361 46.8096 48.109 46.0214 48.4767C41.5746 50.5375 36.6282 51.5024 31.9641 51.2257C31.5235 51.2002 31.1139 51.1565 31.0518 51.1273C30.9029 51.0618 30.8967 50.9526 30.8563 48.7571C30.8067 45.7641 30.9929 43.2737 31.4925 40.3208C32.4048 34.9103 34.2418 29.8675 36.8361 25.6403L37.1122 25.1924L37.0409 24.6062C36.923 23.6596 36.8764 23.0552 36.8299 21.8973C36.7647 20.2479 36.8919 17.6523 37.044 17.5037C37.1898 17.361 38.2263 17.2765 39.8461 17.2754C41.438 17.2743 41.6615 17.2911 43.1479 17.5172L43.5947 17.5853L43.9143 17.3097C44.4791 16.8232 45.3666 16.1482 45.438 16.1482ZM48.358 17.8372C48.448 17.8372 49.4658 18.5585 50.2478 19.1739C50.9429 19.7236 51.3712 20.0914 52.0725 20.7431C52.5411 21.1764 52.4511 21.1618 53.3355 20.9179C54.0988 20.7104 55.3587 20.5101 56.2059 20.4628C57.0251 20.4154 57.1089 20.4227 57.1306 20.5465C57.1368 20.5938 57.1306 21.0271 57.112 21.5114C57.0685 22.793 56.9754 23.5503 56.6279 25.4437L56.5441 25.8879L56.873 26.3721C57.3261 27.0421 57.7885 27.7848 58.1888 28.4876C58.6729 29.3396 59.3493 30.6467 59.3493 30.7377C59.3493 30.8396 58.8187 31.8955 58.3377 32.7439C57.8598 33.5959 57.4378 34.2768 56.9196 35.0487L56.5038 35.6713L56.6465 36.3849C56.8979 37.6265 57.0406 38.828 57.1027 40.1861C57.1275 40.7578 57.1213 40.9544 57.0747 41.0163C56.9165 41.242 54.7195 40.9908 53.1834 40.5757L52.4728 40.3864L52.0694 40.7614C51.4441 41.3442 50.7981 41.8957 50.133 42.4144C49.3945 42.9897 48.4449 43.6633 48.3735 43.6596C48.3456 43.6596 48.2804 43.6305 48.2277 43.5977C47.2471 42.9715 45.5559 41.6316 44.6156 40.7432C44.4139 40.5502 44.206 40.3937 44.1564 40.3937C44.1067 40.3937 43.905 40.441 43.7095 40.4992C43.2285 40.6449 42.2014 40.8597 41.6397 40.9362C40.9446 41.0345 39.7437 41.0964 39.6506 41.0381C39.5792 40.9944 39.5699 40.9034 39.5699 40.35C39.5699 39.2686 39.7251 37.8522 39.992 36.4504C40.0664 36.0645 40.1254 35.7077 40.1254 35.6567C40.1254 35.6057 39.9671 35.3327 39.7747 35.0487C38.9245 33.8034 37.3388 30.9999 37.3388 30.7486C37.3388 30.6467 37.9594 29.4415 38.4745 28.5422C38.8997 27.7994 39.4396 26.9365 39.9423 26.1937L40.1285 25.9134L40.0385 25.4837C39.7747 24.2676 39.5854 22.742 39.5389 21.4677C39.5141 20.8159 39.5203 20.6011 39.5668 20.5356C39.7251 20.3135 41.9314 20.5647 43.4613 20.9762L44.1719 21.1691L44.4139 20.9434C44.9849 20.4082 45.8041 19.7054 46.4341 19.2066C47.2471 18.5658 48.268 17.8372 48.358 17.8372ZM30.7198 23.6669C30.7601 23.6669 30.8098 23.7579 30.8408 23.8999C30.8718 24.0273 30.9649 24.4205 31.0518 24.7737C31.1387 25.1305 31.2101 25.44 31.2101 25.4619C31.2101 25.4874 30.9525 25.7204 30.6422 25.9862C29.9998 26.5251 29.1403 27.3224 28.5879 27.8868C28.0014 28.4839 26.7695 29.9185 26.4685 30.359L26.1954 30.7595L26.4157 31.0909C26.7167 31.5424 27.8183 32.8386 28.47 33.5085C29.1682 34.2258 30.1426 35.1288 30.7105 35.5875C30.9587 35.7878 31.1728 36.0026 31.1884 36.0609C31.2194 36.1883 30.8594 37.7175 30.7725 37.8195C30.726 37.8777 30.6422 37.8304 30.3257 37.5828C28.9417 36.4905 27.2163 34.8193 25.8758 33.2828C24.9138 32.1795 23.9208 30.8943 23.9208 30.7523C23.9208 30.5047 26.124 27.8613 27.3746 26.6088C28.6314 25.3526 30.546 23.6669 30.7198 23.6669ZM65.9342 23.6669C66.0211 23.6705 67.1662 24.6172 68.0164 25.3927C69.3353 26.5906 70.8837 28.2436 71.8798 29.5143C72.6742 30.5302 72.7673 30.6612 72.7673 30.7632C72.7673 30.8979 72.1188 31.7426 71.0792 32.9551C69.7263 34.5353 68.4198 35.8278 66.8248 37.1677C66.0738 37.7976 65.9373 37.8959 65.8628 37.8413C65.8194 37.8085 65.4967 36.5342 65.4439 36.1883C65.4253 36.0609 65.4563 36.0135 65.6704 35.8351C67.3803 34.4078 68.9567 32.8204 69.959 31.5132C70.2134 31.1819 70.44 30.8724 70.4617 30.8287C70.5144 30.7159 70.3158 30.4319 69.5214 29.4779C68.4943 28.2472 67.2468 27.002 66.0428 26.008C65.7356 25.7532 65.4718 25.5128 65.4563 25.4764C65.4439 25.4364 65.5029 25.116 65.5898 24.7664C65.6767 24.4169 65.7697 24.0273 65.8008 23.8999C65.838 23.7397 65.8784 23.6669 65.9342 23.6669ZM31.5297 26.9146C31.6197 26.9074 31.6662 27.0384 31.7655 27.3734C31.9486 27.9815 32.4017 29.2959 32.6717 29.9949C32.8144 30.3627 32.9292 30.7122 32.9292 30.7705C32.9292 30.8324 32.7834 31.262 32.6096 31.7281C32.3365 32.449 32.1783 32.915 31.7004 34.4006C31.6631 34.5098 31.6042 34.5972 31.5514 34.6045C31.5018 34.6117 31.2318 34.4115 30.9091 34.1275C29.6337 33.0024 27.7284 30.978 27.7284 30.7486C27.7284 30.4938 30.1457 27.9924 31.2939 27.0603C31.4025 26.9729 31.4738 26.9183 31.5297 26.9146ZM65.0995 26.9146C65.177 26.9001 65.2857 26.9838 65.4843 27.1586C66.9396 28.4111 68.9598 30.501 68.9598 30.7486C68.9598 30.9744 67.1475 32.8932 65.8722 34.0183C65.1553 34.6481 65.0902 34.6955 65.025 34.6008C64.9971 34.5644 64.8791 34.2185 64.7581 33.8289C64.6371 33.4393 64.364 32.6419 64.1468 32.0557C63.9296 31.4732 63.7403 30.9198 63.731 30.8324C63.7124 30.7122 63.7806 30.4792 63.9823 29.9585C64.2306 29.3177 64.6712 28.0361 64.9102 27.2642C64.9784 27.0421 65.0219 26.9292 65.0995 26.9146ZM36.6902 32.2742C36.7368 32.2742 36.8423 32.4126 36.9478 32.6165C37.2984 33.2864 37.9377 34.386 38.428 35.1542L38.9276 35.9407L38.7848 36.7963C38.5242 38.3583 38.4807 38.9118 38.4807 40.6194C38.4776 41.8355 38.49 42.1996 38.5366 42.2542C38.5831 42.3088 38.9028 42.327 39.9547 42.327C41.4318 42.327 41.8787 42.2761 43.2223 41.9629L43.9298 41.8027L44.5815 42.3744C46.8716 44.3842 49.562 46.0846 52.2959 47.246C54.7008 48.2728 57.2702 48.95 59.9048 49.2522C60.7892 49.3542 63.2562 49.3906 63.8148 49.3105C64.0972 49.2704 64.1251 49.2559 64.153 49.1212C64.2151 48.8117 64.2368 46.1829 64.1809 45.269C64.0413 42.8732 63.7093 40.5175 63.1972 38.2964C62.9862 37.3716 62.4897 35.5766 62.2508 34.8557C62.1608 34.5899 62.0894 34.3423 62.0894 34.3022C62.0894 34.2149 62.9149 32.5072 62.98 32.4599C63.0576 32.4016 63.1073 32.5109 63.3958 33.3447C64.7116 37.1896 65.5215 41.475 65.7573 45.8697C65.8473 47.5665 65.7884 50.9489 65.6642 51.0946C65.5525 51.2257 62.8404 51.3167 61.5309 51.2329C59.1818 51.0837 56.9444 50.6868 54.6822 50.0096C50.8436 48.8663 47.4085 47.0385 44.2619 44.4643L43.5947 43.9145L42.7538 44.0347C41.1649 44.2604 39.8399 44.3114 38.4776 44.2058C37.6367 44.1403 37.1122 44.0602 37.0347 43.9873C36.8919 43.8453 36.7678 41.2056 36.8299 39.5781C36.8733 38.4894 36.9695 37.317 37.0657 36.6653L37.1153 36.3412L36.9167 36.0135C36.2372 34.8666 35.8989 34.2622 35.8989 34.1785C35.8989 34.1275 36.0603 33.676 36.2558 33.1808C36.5133 32.5254 36.6344 32.2742 36.6902 32.2742ZM61.2826 35.8278H61.2919C61.3788 35.846 61.475 36.141 61.7946 37.3425C62.5868 40.3271 63.0244 43.4257 63.0948 46.5506C63.1228 47.7703 63.1166 47.8941 63.0452 47.9815C62.9738 48.0616 62.8714 48.0726 62.2353 48.0653C61.835 48.058 61.3943 48.0471 61.2516 48.0361C58.6449 47.865 56.0724 47.3189 53.7296 46.4305C52.87 46.1028 52.6621 46.0045 52.6621 45.9244C52.6621 45.8807 52.8141 45.7205 53.0003 45.5675L53.3355 45.2872L53.6365 45.3163C53.804 45.3345 54.2726 45.3818 54.6822 45.4292C55.0918 45.4729 55.79 45.5238 56.2369 45.542C57.9033 45.6112 60.4851 45.3381 60.603 45.0796C60.6651 44.9413 60.8233 43.5868 60.8792 42.7093C60.9785 41.151 60.9288 38.9482 60.7613 37.3825L60.6868 36.6908L60.9537 36.2502C61.1181 35.9771 61.2267 35.8351 61.2826 35.8278ZM35.3838 35.8715C35.5079 35.8715 35.8989 36.5633 35.8989 36.7781C35.8989 36.8728 35.8648 37.277 35.8213 37.6775C35.722 38.6023 35.7034 42.5491 35.7965 43.4157C35.8803 44.1985 35.9951 44.9813 36.0448 45.0869C36.1317 45.2835 37.6863 45.5056 39.3124 45.553C40.4698 45.5857 41.5466 45.5275 42.67 45.3709L43.2906 45.2835L43.6133 45.5457C44.0322 45.8843 44.0695 45.9389 43.9547 46.0372C43.9081 46.0809 43.5854 46.2229 43.2378 46.354C40.5691 47.3735 38.0866 47.9123 35.3186 48.0726C34.3163 48.1308 34.0153 48.1344 33.764 48.0835L33.6026 48.0471L33.6057 46.5761C33.6181 43.5286 34.0991 40.1898 35.0021 36.9456C35.2442 36.0791 35.3186 35.8715 35.3838 35.8715ZM48.3177 48.7826C48.3425 48.7826 48.7707 48.9901 49.2704 49.2413C49.77 49.4925 50.4713 49.8239 50.8281 49.9768C51.5791 50.3009 51.6132 50.3191 51.6318 50.4283C51.6474 50.5266 50.8685 51.7536 50.1734 52.733C49.5372 53.6251 48.4511 54.9395 48.3487 54.9395C48.3084 54.9395 48.0539 54.6773 47.7839 54.3533C47.2502 53.7198 46.7289 53.0389 46.2541 52.3544C45.6986 51.5534 45.047 50.5047 45.047 50.4101C45.047 50.3482 45.1215 50.2863 45.2673 50.2244C45.9283 49.9404 47.0547 49.4088 47.6226 49.1175C47.9763 48.9318 48.2898 48.7826 48.3177 48.7826ZM52.8855 50.8361C52.9538 50.8397 53.171 50.898 53.4037 50.9744C53.6737 51.0618 54.0026 51.1674 54.1361 51.2111C54.3192 51.273 54.3812 51.3167 54.3812 51.3932C54.3812 51.608 52.901 53.9309 51.8149 55.4237C50.7536 56.8838 48.5566 59.407 48.3487 59.407C48.3053 59.407 48.0508 59.1813 47.7839 58.9046C46.2851 57.3426 44.7677 55.3946 43.4458 53.3338C42.701 52.165 42.2976 51.466 42.3162 51.364C42.3379 51.2293 43.7685 50.7596 43.8678 50.8579C43.905 50.8943 44.0571 51.1237 44.1998 51.3677C44.5753 51.9903 45.1742 52.9005 45.6955 53.6324C46.4434 54.6846 48.1967 56.7381 48.3487 56.7381C48.4232 56.7381 49.0655 56.0609 49.6427 55.3764C50.5892 54.255 51.5201 52.9552 52.4138 51.5024C52.6311 51.1492 52.8328 50.8506 52.8638 50.8397C52.8669 50.8361 52.8731 50.8361 52.8855 50.8361Z" fill="#0358A6" fill-opacity="0.64"/>
</svg>
