<svg width="86" height="84" viewBox="0 0 86 84" fill="none" xmlns="http://www.w3.org/2000/svg">
<path fill-rule="evenodd" clip-rule="evenodd" d="M61.492 1.72255C66.9392 1.44099 85.0324 0.286621 85.0324 0.286621L71.0666 83.8237H0.157471C0.157471 83.8237 2.91705 82.7257 9.89997 73.6596L54.3651 6.45266C54.3651 6.45266 56.9567 2.39828 61.492 1.72255ZM41.3766 29.5444L49.9433 28.5026L53.3027 66.9909C53.3027 66.9909 54.4786 75.0152 47.7116 77.2958C38.185 80.8715 30.2662 77.0987 30.2662 77.0987L32.6899 70.9045C32.6899 70.9045 37.3212 72.6783 40.5367 72.0307C43.7522 71.3832 44.2561 68.7366 44.2561 68.2579C44.2561 67.2162 44.1361 65.5269 44.1361 65.5269C44.1361 65.5269 42.7444 69.5812 36.0014 69.3841C31.562 68.7366 30.5542 63.0773 30.5542 63.0773L29.9783 59.8395L28.4665 46.4657L39.2409 30.1919C39.6248 30.3046 40.6327 30.755 41.5205 31.7123C41.6165 30.558 41.3766 29.5444 41.3766 29.5444ZM39.3129 58.657C39.3129 58.657 39.3369 61.7822 41.8805 61.3317C43.9442 61.1065 43.4642 58.2065 43.4642 58.2065C43.4642 58.2065 42.0725 40.891 41.7365 39.1453C41.4006 37.5686 40.6087 36.9211 39.0729 37.3152C37.5371 37.7094 37.6571 39.9618 37.6571 39.9618L39.3129 58.657ZM70.7001 64.6822C70.7721 64.7385 70.8201 64.9074 70.8201 65.1608L70.8441 65.555C70.8681 65.8929 70.8441 66.1181 70.7961 66.1744C70.7241 66.2307 70.6281 66.287 70.4841 66.3152L70.3641 64.5977C70.5321 64.5696 70.6281 64.5977 70.7001 64.6822ZM72.6678 28.024C75.3074 30.389 75.8833 34.0774 75.8833 34.0774L77.2271 44.157L72.8838 70.088C72.2359 70.5667 70.1722 71.5521 64.701 71.5521C57.5638 71.5521 56.3851 65.8717 55.4341 61.2888C55.4195 61.2184 55.405 61.1482 55.3904 61.0783C54.7905 56.7424 53.5667 40.0181 53.5667 40.0181C53.5667 40.0181 52.1749 30.3046 58.8459 27.658C65.4929 25.0114 71.276 26.4191 72.6678 28.024ZM65.1809 69.5249L65.3009 70.6793L66.5487 70.5385L65.2049 64.1754L63.7412 64.3162L63.4532 70.8764L64.653 70.7637V69.5812L65.1809 69.5249ZM66.8127 64.0628L67.2926 70.5385L68.4924 70.3977L68.0125 63.922L66.8127 64.0628ZM64.869 60.656C64.869 60.656 64.869 63.7812 67.4126 63.3307C69.4763 63.0773 69.0443 60.2055 69.0443 60.2055C69.0443 60.2055 67.2446 38.0473 66.9087 36.2735C66.5727 34.6405 65.7569 34.0492 64.2211 34.4152C62.7093 34.7813 62.8053 37.0337 62.8053 37.0337L64.869 60.656ZM71.108 68.1734L71.3 70.0317L72.5478 69.9191L72.4038 68.2016C72.3798 67.6948 72.3318 67.3851 72.2839 67.2725C72.2599 67.1599 72.1879 67.0191 72.0919 66.9065C71.9959 66.7657 71.8039 66.6812 71.54 66.6249C71.8039 66.5686 71.8999 66.456 71.9959 66.2589C72.0679 66.09 72.0679 65.7239 72.0439 65.2453C72.0406 65.2063 72.0374 65.1681 72.0342 65.1307C71.992 64.6282 71.9619 64.2705 71.8279 64.0346C71.66 63.8094 71.468 63.6686 71.228 63.6405C70.9881 63.5841 70.5801 63.6123 69.9562 63.6686L69.0204 63.7531L69.5723 70.2288L70.8921 70.088L70.6521 67.4696C70.8441 67.4414 70.9401 67.4696 71.012 67.554C71.06 67.6104 71.108 67.8356 71.108 68.1734ZM65.013 68.3424L64.653 68.3705C64.653 68.3705 64.701 67.4414 64.749 66.5968C64.869 67.3288 65.013 68.3424 65.013 68.3424Z" fill="#0358A6" fill-opacity="0.64"/>
</svg>
