<svg width="125" height="41" viewBox="0 0 125 41" fill="none" xmlns="http://www.w3.org/2000/svg">
<path d="M17.7199 12.1889L13.3497 13.8146C13.2619 12.801 12.9897 12.0459 12.5376 11.5498C12.0788 11.0531 11.4813 10.8053 10.7456 10.8082C10.1764 10.8194 9.67008 11.0086 9.21799 11.3763C8.77022 11.7446 8.46787 12.2176 8.31765 12.7993C8.17655 13.4683 8.3666 14.0438 8.87676 14.5258C9.38836 15.0073 10.055 15.4741 10.8733 15.9246C11.6949 16.3762 12.4988 16.8914 13.2863 17.4686C14.0753 18.0464 14.6786 18.7677 15.0971 19.6287C15.5204 20.4903 15.5842 21.5743 15.2919 22.8779C14.7218 25.078 13.6707 26.7436 12.1292 27.8766C10.5906 29.0096 8.79469 29.5783 6.74588 29.5845C5.77211 29.6087 4.87177 29.473 4.04006 29.1785C3.20787 28.8846 2.4827 28.2832 1.86311 27.3743C1.24113 26.466 0.764079 25.1022 0.422852 23.2833L5.05223 22.0242C5.01335 23.0733 5.213 23.9011 5.65597 24.5086C6.09799 25.1151 6.79484 25.4248 7.74845 25.4383C8.48274 25.4327 9.09656 25.2604 9.58801 24.9203C10.0747 24.579 10.401 24.1021 10.5565 23.4866C10.7317 22.6605 10.5661 21.9865 10.0603 21.4707C9.55922 20.9537 8.89692 20.4818 8.06904 20.0561C7.24693 19.6287 6.43393 19.1377 5.64109 18.5825C4.84777 18.0284 4.24403 17.2991 3.83513 16.3965C3.42623 15.4938 3.38256 14.3085 3.71371 12.8387C4.06886 11.4445 4.66204 10.2918 5.49952 9.37673C6.33651 8.46336 7.30548 7.782 8.40452 7.3332C9.50499 6.88383 10.6343 6.66084 11.7875 6.66141C13.5824 6.68393 14.9752 7.18848 15.9643 8.17505C16.9458 9.16218 17.5351 10.5001 17.7199 12.1889ZM25.8767 12.2587L22.9516 24.3701C23.6052 25.4474 24.4432 25.9761 25.4712 25.9558C26.1306 26.0088 26.7689 25.6765 27.3909 24.9591C28.0124 24.2417 28.5859 22.812 29.1205 20.671L30.2618 15.9567C30.7648 13.8169 30.8732 12.3877 30.603 11.6692C30.3271 10.9501 29.8457 10.619 29.1642 10.673C28.1425 10.6544 27.0501 11.1821 25.8767 12.2587ZM22.259 7.25943H26.6984L26.049 9.94266C26.7521 9.20892 27.6121 8.52136 28.7044 7.87942C29.7963 7.23747 30.8944 6.89566 32.0025 6.85286C33.8637 6.863 35.0256 7.61532 35.5016 9.10925C35.9773 10.6032 35.8693 12.7768 35.1614 15.6318L33.8685 20.9977C33.1932 23.8521 32.2521 26.0274 31.057 27.5207C29.8563 29.0135 28.3315 29.7664 26.4656 29.776C25.8383 29.7856 25.2 29.6031 24.5622 29.227C23.9186 28.8502 23.1402 28.2207 22.2317 27.3366L19.2523 39.6366H14.4305L22.259 7.25943ZM64.1038 14.8755H59.3233L59.5551 13.8996C59.7494 13.0443 59.6424 12.3978 59.2422 11.9597C58.8357 11.5211 58.2094 11.3003 57.3493 11.2992C56.5003 11.3003 55.7593 11.5211 55.1484 11.9597C54.5259 12.3978 54.1156 13.0448 53.8934 13.8996L51.774 22.6791C51.5797 23.5333 51.6828 24.1809 52.0932 24.6196C52.4934 25.0582 53.1202 25.2784 53.975 25.2801C54.8292 25.2784 55.565 25.0577 56.1812 24.6196C56.7974 24.1809 57.2145 23.5333 57.4362 22.6791L57.7712 21.2967H62.5892C61.8487 24.2868 60.6594 26.4142 59.0099 27.7578C57.3551 29.1036 55.3164 29.7675 52.8932 29.7518C50.4653 29.7681 48.7462 29.1036 47.7455 27.7578C46.7343 26.4142 46.5827 24.2868 47.2699 21.3778L48.7567 15.201C49.4761 12.2914 50.6659 10.1645 52.3202 8.81868C53.9702 7.47454 56.0089 6.81063 58.4306 6.82752C60.8043 6.81345 62.5028 7.45258 63.5145 8.7483C64.5257 10.044 64.7196 12.087 64.1038 14.8755ZM81.2943 19.5336H70.8084L70.0952 22.46C69.8509 23.5525 69.933 24.3555 70.3328 24.869C70.7278 25.3826 71.3435 25.6354 72.1661 25.6304C73.1716 25.6084 73.9721 25.3071 74.5609 24.7266C75.1455 24.1466 75.5405 23.4179 75.7459 22.5417H80.5581C79.8934 24.8347 78.7685 26.6085 77.189 27.8659C75.6048 29.1222 73.5987 29.7597 71.165 29.7771C68.8393 29.7529 67.1638 29.0496 66.1248 27.6683C65.0814 26.2875 64.8439 24.3752 65.4063 21.9324L67.1523 14.6987C67.7748 12.2554 68.9372 10.3436 70.6404 8.96228C72.3446 7.58097 74.3666 6.8782 76.7033 6.85286C78.9681 6.88552 80.6402 7.57421 81.7051 8.92117C82.7758 10.2676 83.0456 12.0847 82.5373 14.3726L81.2943 19.5336ZM71.8038 15.3885H77.4712L77.763 14.1688C78.0063 13.1834 77.9694 12.4108 77.6445 11.8522C77.3143 11.2936 76.6654 11.0081 75.6974 10.9991C74.7241 11.0081 73.9452 11.2936 73.3453 11.8522C72.7502 12.4113 72.3341 13.1839 72.1008 14.1688L71.8038 15.3885ZM110.112 19.5336H99.6318L98.923 22.46C98.6739 23.5525 98.7555 24.3555 99.1505 24.869C99.5507 25.3826 100.167 25.6354 100.989 25.6304C102 25.6084 102.8 25.3071 103.384 24.7266C103.968 24.1466 104.363 23.4179 104.564 22.5417H109.386C108.716 24.8347 107.592 26.6085 106.013 27.8659C104.428 29.1222 102.417 29.7597 99.9836 29.7771C97.6637 29.7529 95.9873 29.0496 94.9487 27.6683C93.9106 26.2875 93.6731 24.3752 94.2298 21.9324L95.9767 14.6987C96.5987 12.2554 97.7611 10.3436 99.4696 8.96228C101.173 7.58097 103.196 6.8782 105.526 6.85286C107.792 6.88552 109.463 7.57421 110.534 8.92117C111.6 10.2676 111.875 12.0847 111.362 14.3726L110.112 19.5336ZM100.632 15.3885H106.294L106.592 14.1688C106.829 13.1834 106.791 12.4108 106.462 11.8522C106.142 11.2936 105.493 11.0081 104.52 10.9991C103.547 11.0081 102.763 11.2936 102.167 11.8522C101.578 12.4113 101.157 13.1839 100.924 14.1688L100.632 15.3885ZM115.584 12.3804H113.07L114.07 8.23474H116.585L118.418 0.563477H123.236L121.403 8.23474H124.507L123.501 12.3804H120.408L117.677 23.6803C117.553 24.2277 117.65 24.6353 117.986 24.904C118.31 25.172 118.807 25.3066 119.462 25.3049C119.797 25.3122 120.127 25.2981 120.43 25.2655L119.391 29.5727C118.435 29.7225 117.499 29.7901 116.585 29.7766C114.99 29.7918 113.811 29.455 113.049 28.7691C112.286 28.0838 112.086 26.9554 112.438 25.386L115.584 12.3804ZM85.3391 22.5941L88.7783 8.40311L90.6663 0.584876H95.4896L93.5972 8.40311L87.7729 31.9254C87.0429 34.8158 85.8637 36.9292 84.2142 38.2683C82.5599 39.613 80.5211 40.2769 78.098 40.2594C75.6701 40.2769 73.9505 39.613 72.9446 38.2683C71.9454 36.923 71.7879 34.7961 72.4747 31.8871L77.3368 31.8685L76.974 33.1879C76.7844 34.0432 76.8876 34.6897 77.2932 35.1278C77.693 35.5665 78.3255 35.7872 79.1798 35.7883C80.035 35.7872 80.7698 35.5665 81.3869 35.1278C82.0037 34.6897 82.4197 34.0432 82.6415 33.1879L83.0796 31.3983L85.3391 22.5941ZM41.256 7.25943H46.0792L40.7367 29.3694H35.9187L41.256 7.25943ZM46.6206 5.19675H41.7964L42.8944 0.563477H47.7182L46.6206 5.19675Z" fill="#0358A6" fill-opacity="0.64"/>
</svg>
