<?xml version="1.0" encoding="UTF-8"?>
<!-- Generator: Adobe Illustrator 15.1.0, SVG Export Plug-In . SVG Version: 6.00 Build 0)  -->
<!DOCTYPE svg PUBLIC "-//W3C//DTD SVG 1.0//EN" "http://www.w3.org/TR/2001/REC-SVG-20010904/DTD/svg10.dtd">
<svg version="1.0" id="Layer_1" xmlns="http://www.w3.org/2000/svg" xmlns:xlink="http://www.w3.org/1999/xlink" x="0px" y="0px" width="413.672px" height="150px" viewBox="0 0 413.672 150" enable-background="new 0 0 413.672 150" xml:space="preserve">
<rect fill-rule="evenodd" clip-rule="evenodd" fill="#C41230" width="413.672" height="150"/>
<path fill="#FFFFFF" d="M390.334,130.521c-0.011-0.475-0.168-0.853-0.495-1.128c-0.328-0.275-0.743-0.416-1.263-0.423  c-0.405,0.003-0.765,0.09-1.081,0.259c-0.315,0.172-0.552,0.424-0.722,0.757c-0.089,0.169-0.135,0.346-0.135,0.535H390.334   M392.172,131.628h-5.612c0,0.665,0.112,1.292,0.384,1.891c0.248,0.6,0.642,1.087,1.172,1.467c0.529,0.382,1.193,0.577,1.994,0.588  c0.643-0.002,1.25-0.107,1.836-0.313v1.31c-0.799,0.186-1.599,0.281-2.422,0.295c-1.139-0.007-2.063-0.227-2.771-0.656  c-0.711-0.431-1.228-1.021-1.556-1.772c-0.327-0.753-0.484-1.612-0.474-2.588c0-0.799,0.125-1.512,0.406-2.137  c0.271-0.626,0.698-1.117,1.274-1.479c0.584-0.36,1.34-0.544,2.274-0.551c1.184,0.019,2.063,0.352,2.637,1  c0.575,0.646,0.868,1.487,0.857,2.52V131.628z M244.475,125.27c-0.632-0.17-1.273-0.254-1.938-0.258  c-0.653,0.014-1.128,0.203-1.431,0.568c-0.316,0.366-0.474,0.827-0.474,1.386v0.904h2.896v1.29h-2.896v7.487h-1.825v-7.487h-1.747  v-1.29h1.747v-1.016c0-1.09,0.338-1.888,0.98-2.39c0.642-0.502,1.555-0.75,2.727-0.744c0.652-0.011,1.318,0.046,1.961,0.165V125.27z   M247.246,136.661h-1.837v-12.724h1.837V136.661z M257.996,127.885l-4.823,12.557h-1.791l1.362-3.724l-3.695-8.833h2.04l2.547,6.343  l2.319-6.343H257.996z M261.736,125.819h-2.197v-1.883h2.197V125.819z M261.556,136.661h-1.837v-8.777h1.837V136.661z   M272.35,136.661h-1.837v-4.793c0-0.354,0-0.719-0.021-1.089c-0.011-0.424-0.102-0.767-0.271-1.03  c-0.168-0.265-0.517-0.401-1.025-0.409c-0.596,0.021-1.081,0.237-1.475,0.646c-0.372,0.409-0.653,0.893-0.823,1.445  c-0.192,0.553-0.281,1.056-0.281,1.506v3.724h-1.825v-8.776h1.825v1.881c0.316-0.637,0.698-1.141,1.205-1.514  c0.508-0.372,1.15-0.563,1.916-0.57c0.643,0.007,1.16,0.143,1.532,0.41c0.384,0.267,0.665,0.617,0.834,1.053  c0.168,0.437,0.247,0.915,0.247,1.432V136.661z M282.582,137.011c-0.022,1.303-0.428,2.229-1.217,2.779  c-0.801,0.549-1.894,0.814-3.268,0.801c-1.004,0.007-1.995-0.099-2.975-0.313v-1.676c0.439,0.199,0.889,0.364,1.352,0.494  c0.462,0.131,0.946,0.199,1.441,0.204c1.071-0.002,1.825-0.24,2.243-0.71c0.417-0.469,0.607-1.155,0.586-2.06v-1.362  c-0.248,0.49-0.608,0.861-1.115,1.113c-0.507,0.251-1.048,0.38-1.589,0.38c-0.901-0.017-1.578-0.247-2.063-0.696  c-0.485-0.444-0.822-1-1.014-1.668c-0.191-0.669-0.271-1.344-0.26-2.024c-0.012-0.694,0.079-1.393,0.281-2.092  c0.192-0.699,0.542-1.286,1.049-1.76c0.507-0.475,1.205-0.721,2.118-0.739c0.541,0.002,1.037,0.124,1.521,0.37  c0.463,0.244,0.813,0.593,1.025,1.047l0.046-1.214h1.837V137.011z M280.745,132.07c0.011-0.416-0.056-0.861-0.169-1.336  c-0.135-0.478-0.351-0.884-0.653-1.226c-0.315-0.342-0.744-0.521-1.296-0.538c-0.564,0.02-0.969,0.219-1.24,0.597  c-0.27,0.379-0.45,0.819-0.54,1.322c-0.091,0.503-0.124,0.952-0.124,1.349c0,0.386,0.045,0.819,0.124,1.303  c0.09,0.48,0.271,0.902,0.54,1.262c0.271,0.363,0.676,0.554,1.218,0.569c0.563-0.021,0.99-0.218,1.307-0.595  c0.314-0.376,0.53-0.819,0.653-1.326C280.689,132.942,280.756,132.483,280.745,132.07z M297.984,125.27  c-0.632-0.17-1.273-0.254-1.938-0.258c-0.642,0.014-1.127,0.203-1.441,0.568c-0.304,0.366-0.45,0.827-0.45,1.386v0.904h2.884v1.29  h-2.884v7.487h-1.838v-7.487h-1.746v-1.29h1.746v-1.016c0.012-1.09,0.339-1.888,0.98-2.39c0.653-0.502,1.565-0.75,2.728-0.744  c0.664-0.011,1.307,0.046,1.96,0.165V125.27z M306.638,132.272c0.012,0.859-0.135,1.63-0.417,2.324  c-0.281,0.688-0.743,1.235-1.375,1.643c-0.63,0.408-1.452,0.616-2.49,0.625c-1.036-0.009-1.87-0.217-2.501-0.62  c-0.619-0.407-1.093-0.952-1.374-1.641c-0.283-0.691-0.429-1.468-0.417-2.331c-0.012-0.867,0.134-1.649,0.417-2.337  c0.281-0.69,0.755-1.236,1.374-1.638c0.631-0.402,1.465-0.607,2.501-0.616c1.038,0.009,1.872,0.215,2.49,0.62  c0.632,0.405,1.094,0.952,1.375,1.642C306.503,130.632,306.649,131.408,306.638,132.272z M304.599,132.272  c0.011-0.475-0.033-0.965-0.136-1.472c-0.101-0.502-0.315-0.931-0.641-1.281c-0.317-0.35-0.813-0.532-1.467-0.549  c-0.664,0.014-1.159,0.196-1.487,0.541c-0.314,0.345-0.529,0.771-0.63,1.275c-0.103,0.502-0.146,0.998-0.146,1.485  c0,0.481,0.044,0.976,0.146,1.479c0.101,0.501,0.315,0.932,0.63,1.279c0.328,0.348,0.823,0.528,1.487,0.542  c0.654-0.014,1.14-0.196,1.454-0.547c0.327-0.353,0.54-0.778,0.643-1.281C304.565,133.239,304.609,132.749,304.599,132.272z   M313.781,129.487c-0.776,0.01-1.385,0.166-1.836,0.474c-0.439,0.305-0.744,0.719-0.935,1.236c-0.182,0.52-0.271,1.101-0.271,1.74  v3.724h-1.836v-8.776h1.836v1.769c0.271-0.613,0.654-1.097,1.184-1.441c0.507-0.348,1.139-0.525,1.858-0.53V129.487z   M328.498,131.628h-5.622c0,0.665,0.122,1.292,0.394,1.891c0.248,0.6,0.642,1.087,1.172,1.467c0.529,0.382,1.193,0.577,1.994,0.588  c0.643-0.002,1.25-0.107,1.836-0.313v1.31c-0.799,0.186-1.6,0.281-2.422,0.295c-1.139-0.007-2.063-0.227-2.771-0.656  c-0.711-0.431-1.218-1.021-1.556-1.772c-0.327-0.753-0.474-1.612-0.474-2.588c0-0.799,0.125-1.512,0.406-2.137  c0.271-0.626,0.698-1.117,1.274-1.479c0.586-0.36,1.34-0.544,2.274-0.551c1.184,0.019,2.063,0.352,2.637,1  c0.575,0.646,0.868,1.487,0.857,2.52V131.628z M326.672,130.521c-0.022-0.475-0.18-0.853-0.507-1.128  c-0.328-0.275-0.755-0.416-1.273-0.423c-0.395,0.003-0.755,0.09-1.07,0.259c-0.315,0.172-0.552,0.424-0.722,0.757  c-0.09,0.169-0.134,0.346-0.134,0.535H326.672z M338.244,127.885l-3.358,8.776h-1.871l-3.672-8.776h2.039l2.524,6.382l2.298-6.382  H338.244z M346.582,131.628h-5.634c0,0.665,0.136,1.292,0.383,1.891c0.271,0.6,0.654,1.087,1.184,1.467  c0.53,0.382,1.193,0.577,2.005,0.588c0.632-0.002,1.239-0.107,1.825-0.313v1.31c-0.788,0.186-1.6,0.281-2.421,0.295  c-1.139-0.007-2.075-0.227-2.773-0.656c-0.709-0.431-1.228-1.021-1.544-1.772c-0.326-0.753-0.495-1.612-0.495-2.588  c0-0.799,0.135-1.512,0.406-2.137c0.28-0.626,0.698-1.117,1.296-1.479c0.574-0.36,1.341-0.544,2.253-0.551  c1.194,0.019,2.073,0.352,2.647,1c0.586,0.646,0.868,1.487,0.868,2.52V131.628z M344.745,130.521  c-0.012-0.475-0.18-0.853-0.507-1.128c-0.326-0.275-0.754-0.416-1.273-0.423c-0.405,0.003-0.755,0.09-1.07,0.259  c-0.314,0.172-0.552,0.424-0.721,0.757c-0.079,0.169-0.136,0.346-0.136,0.535H344.745z M353.692,129.487  c-0.777,0.01-1.387,0.166-1.826,0.474c-0.45,0.305-0.766,0.719-0.945,1.236c-0.182,0.52-0.271,1.101-0.26,1.74v3.724h-1.837v-8.776  h1.837v1.769c0.27-0.613,0.643-1.097,1.161-1.441c0.528-0.348,1.149-0.525,1.87-0.53V129.487z M363.112,127.885l-4.834,12.557  h-1.793l1.364-3.724l-3.673-8.833h2.027l2.559,6.343l2.32-6.343H363.112z M372.543,132.272c0.012,0.859-0.135,1.63-0.418,2.324  c-0.28,0.688-0.742,1.235-1.374,1.643c-0.619,0.408-1.453,0.616-2.479,0.625c-1.037-0.009-1.882-0.217-2.502-0.62  c-0.631-0.407-1.104-0.952-1.385-1.641c-0.283-0.691-0.43-1.468-0.418-2.331c-0.012-0.867,0.135-1.649,0.418-2.337  c0.281-0.69,0.754-1.236,1.385-1.638c0.62-0.402,1.465-0.607,2.502-0.616c1.036,0.009,1.859,0.215,2.49,0.62  c0.63,0.405,1.082,0.952,1.362,1.642C372.408,130.632,372.555,131.408,372.543,132.272z M370.504,132.272  c0.01-0.475-0.034-0.965-0.137-1.472c-0.101-0.502-0.314-0.931-0.642-1.281c-0.314-0.35-0.799-0.532-1.453-0.549  c-0.664,0.014-1.16,0.196-1.487,0.541s-0.541,0.771-0.642,1.275c-0.102,0.502-0.146,0.998-0.137,1.485  c-0.01,0.481,0.035,0.976,0.137,1.479c0.101,0.501,0.314,0.932,0.642,1.279s0.823,0.528,1.487,0.542  c0.654-0.014,1.139-0.196,1.453-0.547c0.315-0.353,0.529-0.778,0.642-1.281C370.47,133.239,370.514,132.749,370.504,132.272z   M382.379,136.661h-1.835v-4.793c0-0.354,0-0.719-0.024-1.089c-0.011-0.424-0.112-0.767-0.269-1.03  c-0.182-0.265-0.52-0.401-1.025-0.409c-0.598,0.021-1.095,0.237-1.465,0.646c-0.384,0.409-0.665,0.893-0.835,1.445  c-0.19,0.553-0.281,1.056-0.281,1.506v3.724h-1.825v-8.776h1.825v1.881c0.314-0.637,0.71-1.141,1.206-1.514  c0.506-0.372,1.148-0.563,1.915-0.57c0.642,0.007,1.148,0.143,1.532,0.41c0.394,0.267,0.665,0.617,0.833,1.053  c0.171,0.437,0.248,0.915,0.248,1.432V136.661z"/>
<path fill="#FFFFFF" d="M178.148,64.611l-9.106,2.887c-0.183-1.8-0.75-3.141-1.692-4.022c-0.956-0.882-2.201-1.322-3.734-1.317  c-1.186,0.02-2.241,0.356-3.183,1.009c-0.933,0.654-1.563,1.494-1.876,2.527c-0.294,1.188,0.102,2.21,1.165,3.066  c1.066,0.855,2.455,1.684,4.16,2.484c1.712,0.802,3.387,1.717,5.028,2.742c1.644,1.026,2.901,2.307,3.773,3.836  c0.882,1.53,1.015,3.455,0.406,5.77c-1.188,3.907-3.378,6.865-6.59,8.877c-3.206,2.012-6.948,3.022-11.217,3.033  c-2.029,0.043-3.905-0.198-5.638-0.721c-1.734-0.522-3.245-1.59-4.536-3.204c-1.296-1.613-2.29-4.035-3.001-7.265l9.646-2.236  c-0.081,1.863,0.335,3.333,1.258,4.412c0.921,1.077,2.373,1.627,4.36,1.651c1.53-0.01,2.809-0.316,3.833-0.92  c1.014-0.606,1.694-1.453,2.018-2.546c0.365-1.467,0.02-2.664-1.034-3.58c-1.044-0.918-2.424-1.756-4.149-2.512  c-1.713-0.759-3.407-1.631-5.059-2.617c-1.653-0.984-2.911-2.279-3.763-3.882s-0.943-3.708-0.253-6.318  c0.74-2.476,1.976-4.523,3.721-6.148c1.744-1.622,3.763-2.832,6.053-3.629c2.293-0.798,4.646-1.194,7.049-1.193  c3.74,0.04,6.642,0.936,8.703,2.688C176.535,59.236,177.763,61.612,178.148,64.611 M195.144,64.735l-6.095,21.508  c1.362,1.913,3.108,2.852,5.25,2.816c1.374,0.094,2.704-0.496,4-1.77c1.295-1.274,2.49-3.813,3.604-7.615l2.378-8.372  c1.048-3.8,1.274-6.338,0.711-7.614c-0.575-1.277-1.578-1.865-2.998-1.769C199.865,61.886,197.589,62.823,195.144,64.735z   M187.606,55.857h9.25l-1.353,4.765c1.465-1.303,3.257-2.524,5.533-3.664c2.275-1.14,4.563-1.747,6.872-1.823  c3.878,0.018,6.299,1.354,7.291,4.007c0.991,2.653,0.766,6.513-0.709,11.583l-2.694,9.529c-1.407,5.069-3.368,8.932-5.858,11.584  c-2.502,2.651-5.679,3.988-9.567,4.005c-1.307,0.017-2.637-0.307-3.966-0.975c-1.341-0.669-2.963-1.787-4.856-3.357l-6.208,21.843  h-10.047L187.606,55.857z M274.796,69.382h-9.961l0.483-1.733c0.405-1.519,0.182-2.667-0.652-3.445  c-0.847-0.779-2.152-1.171-3.944-1.173c-1.769,0.002-3.313,0.394-4.586,1.173c-1.297,0.778-2.152,1.927-2.615,3.445l-4.416,15.591  c-0.405,1.517-0.19,2.667,0.665,3.446c0.834,0.779,2.14,1.17,3.921,1.173c1.78-0.003,3.313-0.395,4.597-1.173  c1.284-0.779,2.153-1.929,2.615-3.446l0.698-2.455h10.039c-1.543,5.31-4.021,9.088-7.458,11.474  c-3.448,2.39-7.696,3.569-12.745,3.541c-5.059,0.029-8.641-1.151-10.726-3.541c-2.107-2.386-2.423-6.164-0.991-11.33l3.098-10.969  c1.499-5.167,3.978-8.944,7.425-11.334c3.438-2.387,7.686-3.566,12.732-3.536c4.946-0.025,8.485,1.11,10.593,3.411  C275.675,60.802,276.079,64.43,274.796,69.382z M310.615,77.654h-21.849l-1.486,5.197c-0.509,1.94-0.338,3.366,0.495,4.278  c0.823,0.912,2.106,1.361,3.82,1.352c2.095-0.039,3.763-0.574,4.99-1.605c1.218-1.03,2.041-2.324,2.469-3.88h10.027  c-1.385,4.072-3.729,7.222-7.02,9.455c-3.301,2.231-7.481,3.363-12.552,3.394c-4.846-0.043-8.337-1.292-10.502-3.745  c-2.174-2.452-2.669-5.848-1.497-10.186l3.638-12.846c1.297-4.339,3.719-7.734,7.268-10.187c3.551-2.453,7.764-3.701,12.633-3.746  c4.719,0.058,8.203,1.281,10.422,3.673c2.231,2.391,2.793,5.618,1.734,9.681L310.615,77.654z M290.84,70.293h11.809l0.608-2.166  c0.507-1.75,0.43-3.122-0.247-4.114c-0.688-0.992-2.04-1.499-4.057-1.515c-2.028,0.016-3.651,0.523-4.901,1.515  c-1.24,0.993-2.107,2.365-2.593,4.114L290.84,70.293z M370.66,77.654h-21.836l-1.477,5.197c-0.519,1.94-0.349,3.366,0.474,4.278  c0.834,0.912,2.118,1.361,3.83,1.352c2.107-0.039,3.774-0.574,4.992-1.605c1.217-1.03,2.039-2.324,2.457-3.88h10.049  c-1.396,4.072-3.739,7.222-7.029,9.455c-3.302,2.231-7.493,3.363-12.563,3.394c-4.834-0.043-8.327-1.292-10.491-3.745  c-2.163-2.452-2.658-5.848-1.498-10.186l3.64-12.846c1.296-4.339,3.718-7.734,7.278-10.187c3.55-2.453,7.764-3.701,12.62-3.746  c4.721,0.058,8.203,1.281,10.434,3.673c2.221,2.391,2.795,5.618,1.725,9.681L370.66,77.654z M350.909,70.293h11.797l0.62-2.166  c0.495-1.75,0.416-3.122-0.271-4.114c-0.666-0.992-2.018-1.499-4.045-1.515c-2.029,0.016-3.662,0.523-4.903,1.515  c-1.228,0.993-2.106,2.365-2.591,4.114L350.909,70.293z M382.063,64.951h-5.239l2.084-7.362h5.24l3.82-13.623h10.038l-3.819,13.623  h6.468l-2.096,7.362h-6.445l-5.69,20.067c-0.259,0.972-0.057,1.696,0.643,2.173c0.676,0.476,1.712,0.715,3.076,0.712  c0.699,0.013,1.386-0.012,2.018-0.07l-2.165,7.649c-1.992,0.266-3.942,0.386-5.847,0.362c-3.323,0.027-5.78-0.571-7.369-1.789  c-1.589-1.217-2.006-3.221-1.273-6.008L382.063,64.951z M319.043,83.089l7.166-25.201l3.934-13.884h10.05l-3.943,13.884  L324.114,99.66c-1.521,5.133-3.978,8.886-7.415,11.264c-3.447,2.388-7.695,3.567-12.744,3.536  c-5.059,0.031-8.642-1.148-10.738-3.536c-2.082-2.389-2.41-6.166-0.979-11.332l10.131-0.033l-0.756,2.343  c-0.395,1.519-0.18,2.667,0.665,3.445c0.833,0.779,2.151,1.171,3.931,1.173c1.782-0.002,3.313-0.394,4.599-1.173  c1.285-0.778,2.152-1.926,2.614-3.445l0.913-3.178L319.043,83.089z M227.189,55.857h10.05l-11.132,39.264h-10.039L227.189,55.857z   M238.367,52.194h-10.052l2.288-8.228h10.051L238.367,52.194z"/>
<g>
	<defs>
		<path id="SVGID_1_" d="M113.743,76.912c0.458-2.281,2.972-4.816,5.599-5.638c2.606-0.821,4.29,0.364,3.792,2.606    c-0.486,2.231-2.94,4.705-5.505,5.546C115.042,80.279,113.288,79.164,113.743,76.912 M51.063,20.113    c3.033-8.224,12.605-14.532,21.043-13.974c8.142,0.548,11.986,7.312,8.883,15.008c-3.053,7.566-11.825,13.579-19.907,13.539    C52.716,34.656,48.091,28.186,51.063,20.113 M75.979,34.007c2.403-5.964,9.339-10.709,15.313-10.527    c5.811,0.172,8.427,4.969,5.994,10.658c-2.403,5.609-8.903,10.181-14.695,10.283C76.648,44.522,73.605,39.898,75.979,34.007     M96.859,45.942c1.896-4.371,6.967-7.96,11.236-7.972c4.188-0.009,5.973,3.428,4.066,7.646c-1.876,4.168-6.712,7.657-10.891,7.819    C97.001,53.599,94.993,50.262,96.859,45.942 M111.574,54.349c1.492-3.275,5.284-6.023,8.428-6.105    c3.092-0.09,4.36,2.434,2.87,5.628c-1.481,3.164-5.152,5.842-8.245,6.014C111.492,60.069,110.093,57.594,111.574,54.349     M122.262,60.454c1.166-2.494,4.058-4.614,6.419-4.725c2.333-0.111,3.256,1.785,2.079,4.228c-1.166,2.434-3.975,4.513-6.308,4.676    C122.089,64.794,121.096,62.928,122.262,60.454 M7.396,114.252c-2.616-5.151,2.596-13.164,11.531-17.656    c8.762-4.401,17.422-3.56,19.46,1.664c1.967,5.06-3.012,12.503-11.216,16.833C18.814,119.525,9.921,119.24,7.396,114.252     M41.896,106.717c-1.532-3.945,2.484-9.958,8.923-13.295c6.338-3.286,12.422-2.605,13.649,1.369    c1.197,3.895-2.676,9.584-8.721,12.829C49.624,110.925,43.396,110.57,41.896,106.717 M71.943,100.328    c-0.882-3.021,2.221-7.564,6.906-10.049c4.625-2.464,8.924-1.928,9.634,1.125c0.699,2.992-2.323,7.341-6.784,9.787    C77.186,103.654,72.806,103.309,71.943,100.328 M93.645,95.714c-0.517-2.343,1.896-5.812,5.375-7.707    c3.458-1.876,6.582-1.44,7.008,0.913c0.425,2.323-1.937,5.689-5.304,7.544C97.336,98.351,94.162,98.037,93.645,95.714     M109.708,92.306c-0.314-1.835,1.571-4.513,4.208-5.973c2.627-1.439,4.949-1.105,5.204,0.73c0.263,1.826-1.593,4.443-4.158,5.873    C112.375,94.385,110.022,94.112,109.708,92.306 M21.35,68.222c0.183-7.2,8.154-15.06,17.533-17.32    c9.107-2.191,15.8,1.824,15.212,8.761c-0.578,6.754-7.93,14.046-16.642,16.5C28.488,78.677,21.168,75.229,21.35,68.222     M53.304,71.062c0.456-5.293,6.318-11.115,12.96-12.869c6.489-1.725,11.105,1.166,10.444,6.317    c-0.647,5.06-6.175,10.567-12.462,12.422C57.817,78.83,52.858,76.254,53.304,71.062 M80.431,73.688    c0.538-3.925,4.888-8.275,9.645-9.634c4.664-1.328,7.869,0.761,7.22,4.615c-0.639,3.792-4.797,7.96-9.36,9.37    C83.291,79.478,79.894,77.562,80.431,73.688 M99.679,75.555c0.517-2.972,3.813-6.268,7.301-7.322    c3.458-1.045,5.75,0.506,5.173,3.437c-0.568,2.891-3.752,6.084-7.139,7.169C101.575,79.935,99.172,78.484,99.679,75.555"/>
	</defs>
	<clipPath id="SVGID_2_">
		<use xlink:href="#SVGID_1_" overflow="visible"/>
	</clipPath>
	
		<linearGradient id="SVGID_3_" gradientUnits="userSpaceOnUse" x1="121.209" y1="83.950" x2="29.365" y2="46.843">
		<stop offset="0" style="stop-color: rgb(255, 221, 0);"/>
		<stop offset="1" style="stop-color: rgb(245, 130, 32);"/>
	</linearGradient>
	<polygon clip-path="url(#SVGID_2_)" fill="url(#SVGID_3_)" points="171.513,21.572 22.623,-38.584 -34.797,103.535 114.093,163.691"/>
</g>
</svg>